{"glyphs":{"0":{"ha":688,"x_min":0,"x_max":621,"o":"m 357 972 q 595 662 516 888 q 621 450 621 553 q 450 103 621 197 q 279 5 313 5 q 264 0 274 5 q 26 310 104 84 q 0 522 0 418 q 171 869 0 775 q 341 966 307 966 q 357 972 347 966 m 83 564 l 83 558 q 217 310 83 468 q 388 227 332 227 q 532 372 532 264 q 538 408 538 372 l 538 414 q 404 662 538 504 q 233 745 288 745 q 88 600 88 707 q 83 564 83 600 z "},"1":{"ha":374,"x_min":0,"x_max":307,"o":"m 264 972 l 269 972 l 269 549 q 307 0 269 117 l 47 0 q 95 343 71 0 l 95 422 q 5 798 95 736 l 0 808 l 264 972 z "},"2":{"ha":817,"x_min":0,"x_max":747,"o":"m 282 972 l 292 972 q 554 873 437 972 q 648 684 648 772 l 648 680 q 538 444 648 544 q 292 203 513 412 q 747 245 715 245 q 543 0 573 29 l 0 0 q 423 481 401 437 q 465 574 465 543 q 292 726 465 707 q 120 680 253 726 l 120 684 q 282 972 252 932 z "},"3":{"ha":745,"x_min":0,"x_max":678,"o":"m 258 972 q 501 861 380 972 q 592 734 592 776 q 481 542 592 642 q 663 400 566 513 q 678 354 678 363 l 678 349 q 618 172 678 307 q 420 20 505 45 l 334 0 q 31 182 174 0 q 0 263 0 229 q 263 157 190 157 q 446 283 367 157 q 456 339 456 327 q 410 446 448 408 q 228 496 324 496 l 228 522 q 420 608 420 567 q 435 627 425 608 l 435 643 q 314 744 435 712 q 283 749 307 749 q 137 729 222 749 l 137 734 q 258 972 248 972 z "},"4":{"ha":796,"x_min":0,"x_max":725,"o":"m 631 972 l 631 457 q 725 467 703 467 l 725 373 q 631 362 642 362 l 631 237 q 651 0 631 180 l 457 0 q 484 231 484 150 l 484 336 l 420 336 q 0 300 349 336 l 0 304 l 631 972 m 174 404 l 178 404 q 478 441 372 425 q 484 709 484 640 q 174 404 391 630 z "},"5":{"ha":774,"x_min":0,"x_max":708,"o":"m 703 972 l 703 966 q 644 819 653 819 l 222 819 q 169 665 169 675 l 180 665 q 576 581 481 665 q 708 380 708 482 q 602 212 708 319 q 333 16 533 133 q 311 0 333 11 q 0 222 227 53 q 127 328 0 227 l 137 328 l 412 137 q 523 237 492 176 l 538 290 q 233 512 538 446 l 79 523 l 79 528 q 216 972 201 928 l 703 972 z "},"6":{"ha":745,"x_min":0,"x_max":674,"o":"m 555 972 l 555 967 q 412 863 555 962 q 218 630 250 726 q 184 461 198 630 l 184 456 q 387 144 184 318 q 436 124 408 124 l 446 124 q 536 332 536 191 q 436 500 519 428 q 347 541 370 541 l 337 541 q 198 511 302 541 l 198 515 q 412 680 383 680 q 461 684 460 680 q 635 526 534 669 q 674 362 674 431 q 352 5 674 186 q 332 0 343 0 q 35 298 174 53 q 0 436 10 370 q 233 828 0 659 q 526 962 389 934 l 555 972 z "},"7":{"ha":785,"x_min":0,"x_max":709,"o":"m 149 969 l 709 969 q 191 0 222 68 l 0 0 l 0 5 l 556 816 q 106 773 106 804 q 11 709 71 760 l 5 709 q 111 958 44 958 q 149 969 111 968 z "},"8":{"ha":736,"x_min":0,"x_max":670,"o":"m 332 972 l 338 972 q 624 762 404 962 q 650 680 650 711 q 481 511 650 649 l 481 507 q 670 296 670 387 q 399 31 670 216 q 322 0 367 0 q 10 240 216 55 q 0 271 0 257 q 195 471 0 343 l 215 491 q 20 690 20 640 q 199 875 20 729 q 332 972 302 972 m 169 767 q 230 701 169 732 q 430 557 406 557 l 440 557 q 522 650 444 557 l 522 670 q 281 854 499 692 l 266 854 q 169 767 237 834 m 159 353 l 159 328 q 399 143 159 324 l 435 143 q 517 235 439 146 l 517 256 q 271 445 517 261 l 256 445 q 159 353 242 444 z "},"9":{"ha":688,"x_min":0,"x_max":623,"o":"m 339 972 q 592 663 520 855 q 623 506 612 599 q 567 278 612 393 q 359 86 437 123 q 172 0 288 36 l 167 0 l 117 5 l 288 137 q 435 415 435 298 q 243 283 272 283 q 106 345 143 307 q 10 522 10 434 q 0 552 5 522 q 278 941 0 772 q 339 972 302 972 m 146 668 q 218 491 146 545 q 324 430 275 430 q 450 526 450 477 q 319 760 404 692 q 238 835 290 798 l 238 840 q 146 694 163 778 l 146 668 z "}," ":{"ha":345,"x_min":0,"x_max":0,"o":""},"!":{"ha":456,"x_min":140,"x_max":310,"o":"m 212 222 l 179 925 q 193 972 179 956 q 235 987 208 987 q 278 972 264 987 q 292 925 292 956 l 237 222 l 212 222 m 151 113 l 207 170 q 227 180 217 180 q 248 169 235 180 l 302 111 q 310 91 310 100 q 300 70 310 81 l 246 10 q 227 -3 233 -3 q 207 6 216 -3 l 147 75 q 140 92 140 83 q 151 113 140 102 z "},"\"":{"ha":456,"x_min":68,"x_max":390,"o":"m 134 751 l 113 751 l 71 995 q 68 1017 68 1010 q 82 1056 68 1042 q 123 1069 96 1069 q 164 1056 149 1069 q 178 1018 178 1043 q 176 995 178 1013 l 134 751 m 345 751 l 325 751 l 283 995 q 280 1017 280 1010 q 294 1056 280 1042 q 334 1069 308 1069 q 375 1056 361 1069 q 390 1018 390 1043 q 387 995 390 1013 l 345 751 z "},"#":{"ha":906,"x_min":79,"x_max":827,"o":"m 404 583 l 347 386 l 511 386 l 569 583 l 404 583 m 456 972 l 519 972 l 424 649 l 588 649 l 684 972 l 747 972 l 651 649 l 827 649 l 807 583 l 631 583 l 575 387 l 764 387 l 744 320 l 554 320 l 459 0 l 397 0 l 491 320 l 328 320 l 232 0 l 170 0 l 264 320 l 79 320 l 100 387 l 283 387 l 342 583 l 142 583 l 161 649 l 361 649 l 456 972 z "},"$":{"ha":688,"x_min":77,"x_max":665,"o":"m 391 1053 l 391 983 q 487 960 437 978 q 500 956 494 956 q 528 986 517 956 l 562 986 l 631 795 l 598 795 q 484 916 557 886 q 391 943 434 937 l 391 576 q 610 452 555 513 q 665 273 665 391 q 584 70 665 140 q 391 -12 503 0 l 391 -174 l 342 -174 l 342 -13 q 161 13 214 -11 q 149 17 155 17 q 121 -14 132 17 l 87 -14 l 87 211 l 120 211 q 223 58 154 87 q 342 28 293 28 l 342 459 q 139 563 197 505 q 77 732 77 625 q 161 916 77 844 q 342 985 233 975 l 342 1053 l 391 1053 m 391 444 l 391 31 q 535 96 476 42 q 593 244 593 149 q 547 368 593 323 q 391 444 505 408 m 342 592 l 342 945 q 207 896 261 941 q 149 772 149 846 q 186 669 149 706 q 342 592 221 632 z "},"%":{"ha":1092,"x_min":42,"x_max":1050,"o":"m 304 989 q 434 956 371 989 q 532 862 496 923 q 567 732 567 800 q 533 605 567 665 q 436 510 498 544 q 304 475 373 475 q 174 510 237 475 q 77 605 111 544 q 42 732 42 665 q 77 862 42 800 q 175 956 113 923 q 304 989 238 989 m 140 723 q 177 605 149 661 q 250 521 206 550 q 327 494 288 494 q 336 494 332 494 q 414 530 378 496 q 463 623 449 564 q 472 698 472 659 q 469 742 472 720 q 431 861 461 805 q 359 945 401 917 q 281 971 319 971 l 273 971 q 197 936 232 969 q 147 844 161 903 q 137 765 137 805 q 140 723 137 744 m 201 -20 l 839 971 l 896 971 l 260 -20 l 201 -20 m 787 500 q 916 467 853 500 q 1015 372 979 433 q 1050 243 1050 311 q 1016 115 1050 176 q 919 20 981 54 q 787 -14 856 -14 q 656 20 719 -14 q 559 115 594 54 q 525 243 525 176 q 560 372 525 311 q 658 467 595 433 q 787 500 721 500 m 623 233 q 660 116 631 171 q 732 31 689 60 q 811 5 772 5 l 819 5 q 897 41 861 7 q 946 133 932 75 q 955 208 955 170 q 952 252 955 230 q 914 371 944 315 q 842 456 884 427 q 764 481 802 481 l 756 481 q 680 446 715 479 q 630 355 644 413 q 620 275 620 315 q 623 233 620 254 z "},"&":{"ha":1141,"x_min":103,"x_max":1124,"o":"m 713 133 l 337 596 q 215 538 257 596 q 174 399 174 479 q 198 276 174 338 q 267 165 222 215 q 378 79 315 109 q 510 49 441 49 q 625 72 570 49 q 713 133 680 94 m 945 0 q 851 17 907 0 q 738 106 795 34 q 619 23 692 56 q 456 -11 546 -11 q 202 91 300 -11 q 103 353 103 193 q 155 533 103 462 q 307 636 206 605 q 265 715 279 677 q 251 790 251 752 q 303 924 251 861 q 427 986 355 986 q 523 960 473 986 q 535 956 529 956 q 561 986 551 956 l 592 986 l 657 795 l 626 795 q 521 916 589 886 q 425 941 463 941 q 353 910 381 941 q 326 831 326 880 q 395 650 326 742 l 755 195 q 837 361 821 294 q 848 449 848 414 q 806 515 848 515 l 745 515 l 745 549 l 1046 549 l 1046 515 l 985 515 q 886 361 920 515 q 781 163 865 271 q 949 71 855 71 l 960 71 q 1090 157 1057 82 l 1124 157 l 1054 0 l 945 0 z "},"'":{"ha":235,"x_min":68,"x_max":178,"o":"m 134 751 l 113 751 l 71 995 q 68 1017 68 1010 q 82 1056 68 1042 q 123 1069 96 1069 q 164 1056 149 1069 q 178 1018 178 1043 q 176 995 178 1013 l 134 751 z "},"(":{"ha":514,"x_min":171,"x_max":475,"o":"m 171 408 q 238 767 172 595 q 420 1067 304 939 l 475 1067 q 319 770 358 903 q 280 415 280 639 l 280 400 q 319 46 280 176 q 475 -251 358 -87 l 420 -251 q 238 48 304 -123 q 171 408 172 220 z "},")":{"ha":514,"x_min":39,"x_max":343,"o":"m 94 -251 l 39 -251 q 195 46 156 -87 q 234 400 234 176 l 234 415 q 195 770 234 639 q 39 1067 156 903 l 94 1067 q 276 767 210 939 q 343 408 342 595 q 276 48 342 220 q 94 -251 210 -123 z "},"*":{"ha":694,"x_min":148,"x_max":546,"o":"m 338 878 q 313 966 335 926 q 288 1023 288 1010 q 303 1058 288 1044 q 346 1071 319 1071 q 388 1059 371 1071 q 404 1027 404 1046 q 380 966 404 1013 q 355 878 357 925 q 431 929 399 895 q 478 970 466 966 q 492 972 486 972 q 516 966 505 972 q 542 930 534 954 q 546 905 546 917 q 543 886 546 895 q 517 861 536 866 q 505 859 513 859 q 453 865 488 859 q 416 869 434 869 q 361 861 388 869 q 432 805 391 824 q 486 773 478 783 q 494 747 494 761 q 493 736 494 741 q 467 700 488 715 q 427 685 447 685 q 426 686 426 685 q 393 701 405 686 q 378 765 385 713 q 347 850 372 810 q 315 766 321 810 q 302 705 309 715 q 269 686 289 688 l 265 686 q 227 701 246 686 q 200 735 206 715 q 197 749 197 742 q 205 770 197 760 q 261 805 214 782 q 332 861 302 825 q 278 868 304 868 q 242 865 260 868 q 189 857 205 857 q 180 859 183 857 q 152 884 159 865 q 148 904 148 893 q 152 928 148 916 q 176 964 159 952 q 199 972 188 972 q 212 970 205 972 q 262 928 225 966 q 338 878 294 895 z "},"+":{"ha":688,"x_min":59,"x_max":629,"o":"m 296 439 l 59 439 l 59 534 l 296 534 l 296 784 l 297 785 l 391 785 l 391 534 l 628 534 l 629 533 l 629 439 l 391 439 l 391 188 l 296 188 l 296 439 z "},",":{"ha":378,"x_min":81,"x_max":252,"o":"m 161 175 q 221 131 191 175 q 252 28 252 86 q 203 -126 252 -46 q 109 -205 155 -205 l 109 -176 q 168 -47 159 -147 q 81 62 168 33 l 81 90 l 161 175 z "},"-":{"ha":454,"x_min":79,"x_max":376,"o":"m 106 277 q 79 296 79 277 l 79 353 q 106 372 79 372 l 348 372 q 376 353 376 372 l 376 296 q 349 277 376 277 l 106 277 z "},".":{"ha":378,"x_min":87,"x_max":257,"o":"m 98 113 l 154 170 q 174 180 164 180 q 195 169 182 180 l 249 111 q 257 91 257 100 q 248 70 257 81 l 193 10 q 174 -3 180 -3 q 154 6 163 -3 l 94 75 q 87 92 87 83 q 98 113 87 102 z "},"/":{"ha":386,"x_min":9,"x_max":430,"o":"m 63 -34 l 9 -34 l 376 972 l 430 972 l 63 -34 z "},":":{"ha":378,"x_min":87,"x_max":257,"o":"m 98 113 l 154 170 q 174 180 164 180 q 195 169 182 180 l 249 111 q 257 91 257 100 q 248 70 257 81 l 193 10 q 174 -3 180 -3 q 154 6 163 -3 l 94 75 q 87 92 87 83 q 98 113 87 102 m 98 583 l 154 640 q 174 650 164 650 q 195 639 182 650 l 249 581 q 257 561 257 570 q 248 540 257 551 l 193 480 q 174 467 180 467 q 154 476 163 467 l 94 545 q 87 562 87 553 q 98 583 87 572 z "},";":{"ha":378,"x_min":81,"x_max":257,"o":"m 98 583 l 154 640 q 174 649 164 649 q 195 638 182 649 l 249 580 q 257 560 257 569 q 248 539 257 550 l 193 479 q 174 466 180 466 q 154 475 163 466 l 94 544 q 87 562 87 553 q 98 583 87 572 m 161 175 q 221 131 191 175 q 252 28 252 86 q 203 -126 252 -46 q 109 -205 155 -205 l 109 -176 q 168 -47 159 -147 q 81 62 168 33 l 81 90 l 161 175 z "},"<":{"ha":688,"x_min":59,"x_max":629,"o":"m 629 728 l 205 485 l 629 244 l 629 131 l 59 457 l 59 513 l 629 842 l 629 728 z "},"=":{"ha":688,"x_min":59,"x_max":629,"o":"m 59 428 l 629 428 l 629 333 l 59 333 l 59 428 m 59 640 l 629 640 l 629 545 l 59 545 l 59 640 z "},">":{"ha":688,"x_min":59,"x_max":629,"o":"m 59 842 l 629 513 l 629 457 l 59 131 l 59 244 l 483 485 l 59 728 l 59 842 z "},"?":{"ha":507,"x_min":90,"x_max":452,"o":"m 90 902 q 254 972 176 972 q 397 926 343 972 q 452 803 452 880 q 430 708 452 756 q 345 582 408 660 q 249 455 284 505 q 214 358 214 404 q 238 230 214 315 l 206 230 q 172 373 172 323 q 251 585 172 447 q 330 794 330 722 q 298 882 330 850 q 210 913 267 913 q 90 859 153 913 l 90 902 m 151 113 l 207 170 q 227 180 217 180 q 248 169 235 180 l 302 111 q 310 91 310 100 q 300 70 310 81 l 246 10 q 227 -3 233 -3 q 207 6 216 -3 l 147 75 q 140 92 140 83 q 151 113 140 102 z "},"@":{"ha":1369,"x_min":68,"x_max":1276,"o":"m 659 422 q 557 368 603 415 q 511 233 511 320 q 554 101 511 160 q 678 42 597 42 q 764 155 744 45 l 764 478 q 659 422 727 435 m 922 20 q 854 32 880 20 q 812 68 829 43 q 757 25 793 43 q 667 6 721 6 q 493 74 569 6 q 416 233 416 142 q 452 346 417 292 q 542 424 488 399 q 660 457 597 448 q 734 486 705 468 q 764 536 764 504 q 736 621 762 583 q 648 659 709 659 q 566 619 600 659 q 532 534 532 579 l 501 534 l 501 642 q 550 669 501 656 q 671 683 600 683 q 802 639 745 682 q 859 532 859 597 l 859 133 q 923 54 859 54 q 1104 183 1048 77 q 1160 443 1160 290 q 1002 809 1146 670 q 677 937 869 937 q 411 843 538 937 q 228 602 283 750 q 182 357 182 481 q 270 11 182 145 q 477 -186 358 -124 q 693 -249 596 -249 q 1083 -108 879 -249 l 1083 -159 q 696 -283 905 -283 q 383 -200 533 -283 q 151 32 233 -117 q 68 345 68 180 q 152 660 68 509 q 386 891 236 810 q 696 972 536 972 q 1109 817 941 972 q 1276 433 1276 661 q 1157 135 1276 250 q 922 20 1038 21 z "},"A":{"ha":839,"x_min":0,"x_max":764,"o":"m 174 972 l 457 972 q 465 964 465 972 l 481 972 l 557 964 l 598 972 l 640 723 l 631 723 q 524 856 543 856 l 524 847 q 764 8 590 508 l 747 0 l 614 0 q 507 490 565 330 l 498 490 q 473 457 486 457 q 448 532 448 512 q 473 598 473 537 q 399 823 473 657 l 391 823 l 315 623 q 349 532 315 612 l 357 532 q 391 606 391 590 l 407 606 l 507 349 q 457 266 465 266 l 440 307 l 448 349 l 440 391 l 432 391 q 391 299 432 361 l 399 299 q 424 332 411 332 l 540 8 l 465 8 l 407 0 q 374 92 374 71 l 382 108 l 382 116 l 374 116 q 299 0 317 0 l 233 0 l 174 8 l 174 16 q 291 233 291 219 l 307 233 l 324 174 q 249 41 311 174 l 274 41 q 357 174 287 41 l 340 166 l 332 166 q 258 357 278 339 q 307 440 297 440 l 315 440 q 324 391 324 397 l 315 357 q 332 307 332 330 l 340 307 q 357 349 340 322 q 291 524 291 498 l 274 524 q 133 0 208 319 l 92 8 l 0 8 q 266 864 158 416 q 116 739 248 864 l 116 747 q 174 972 116 764 m 374 465 q 391 407 391 440 l 399 407 q 415 432 399 432 q 424 424 415 424 q 399 490 399 465 l 391 490 q 374 465 374 490 m 374 274 q 357 258 374 258 q 374 208 374 230 q 366 199 366 208 l 374 199 q 382 224 382 216 l 399 224 q 407 174 407 180 l 391 141 q 440 50 405 141 l 457 41 l 473 41 q 374 274 393 268 z "},"B":{"ha":750,"x_min":0,"x_max":684,"o":"m 313 972 l 321 972 q 642 791 564 972 l 659 692 q 503 437 659 557 l 494 437 q 469 486 469 445 l 469 494 q 519 560 494 494 l 519 576 l 511 576 q 486 527 511 534 q 387 626 414 626 l 387 675 l 395 692 q 511 610 433 679 l 511 602 l 527 602 l 527 610 q 428 890 527 834 l 346 914 q 280 823 280 914 l 280 741 q 239 725 280 725 l 239 717 l 264 717 l 313 725 l 313 667 l 272 667 l 214 659 l 214 650 l 222 650 l 272 659 l 280 659 l 280 626 q 272 593 280 608 q 280 585 272 585 l 272 544 l 272 519 l 313 519 q 346 535 313 535 l 346 544 l 304 544 q 296 535 304 535 l 288 552 l 288 585 q 338 593 294 585 l 338 602 l 313 602 q 362 873 334 873 q 469 675 469 804 l 469 659 l 461 659 q 395 733 433 669 q 362 610 381 701 l 346 610 l 346 602 l 354 602 q 395 618 381 618 l 428 585 q 354 552 428 566 l 354 544 l 370 544 l 370 428 l 330 420 l 321 420 l 321 494 l 313 494 q 296 469 313 469 l 247 469 q 140 453 214 469 l 140 437 q 165 412 140 425 l 173 412 l 165 428 l 165 437 q 272 461 165 461 q 313 74 285 87 q 560 330 533 74 q 544 453 560 350 l 610 519 q 684 313 684 416 l 684 264 q 552 33 684 130 q 461 8 496 8 l 214 8 l 173 0 q 165 8 173 8 q 173 132 173 90 l 173 395 l 165 395 q 157 354 165 354 q 16 461 84 375 q 8 494 8 475 q 255 511 49 511 l 255 519 l 165 519 l 165 544 l 157 626 l 149 626 q 107 602 121 602 l 107 585 l 157 576 l 157 527 l 149 527 q 8 519 105 527 l 0 535 q 140 684 41 639 q 189 700 174 700 l 189 708 l 181 708 q 157 700 165 700 q 107 956 140 850 l 115 956 q 313 972 221 972 m 197 717 l 197 708 l 231 708 l 231 717 l 197 717 m 173 642 l 173 634 l 181 634 q 206 642 197 642 l 206 650 l 197 650 q 173 642 182 642 m 387 519 q 486 404 486 485 l 486 338 q 412 165 486 218 q 338 354 338 262 l 387 354 q 412 304 392 304 q 428 354 428 332 l 428 412 l 420 412 q 288 354 420 354 l 288 404 q 395 437 345 404 l 420 420 l 420 428 q 379 469 409 428 l 379 503 l 387 519 z "},"C":{"ha":624,"x_min":0,"x_max":555,"o":"m 319 972 q 555 768 479 972 l 555 760 q 473 677 483 679 q 302 915 437 915 q 123 743 123 879 q 115 694 115 743 l 115 669 q 155 572 115 622 q 131 547 155 560 q 8 653 37 610 q 98 890 30 800 q 319 972 178 972 m 253 865 q 277 849 277 857 q 212 808 277 830 q 188 743 188 758 l 188 711 q 286 564 188 659 q 269 547 286 547 l 261 547 q 155 711 155 627 l 155 743 q 253 865 176 865 m 351 865 q 441 727 401 865 q 400 612 430 663 l 384 612 q 368 629 368 612 l 368 637 q 400 703 400 671 l 400 735 q 327 825 381 825 q 277 711 277 776 q 286 686 286 694 l 294 686 l 302 743 l 302 760 q 294 768 302 768 q 319 800 307 800 q 343 727 338 800 q 261 612 343 680 l 245 612 l 245 637 q 277 677 245 642 l 269 677 q 253 661 269 661 l 245 703 l 245 751 q 351 865 271 865 m 319 653 q 441 539 325 653 l 441 531 q 376 490 420 490 l 368 507 l 392 539 q 302 621 376 539 l 294 621 l 294 629 q 319 653 294 641 m 196 588 l 204 588 q 220 572 220 585 l 220 564 l 98 433 l 98 335 q 286 57 98 127 l 311 57 q 498 261 442 57 l 507 261 l 507 237 q 457 49 507 49 q 311 0 441 12 q 0 392 43 0 q 8 400 8 392 l 0 400 q 196 588 0 412 m 327 588 l 343 564 q 261 490 294 507 q 245 507 245 490 l 245 515 q 327 588 322 588 m 204 531 q 277 457 215 531 l 277 449 q 261 433 277 433 q 180 507 181 494 q 204 531 180 518 m 327 531 q 441 433 427 433 l 441 425 q 384 376 409 376 l 384 368 q 449 245 440 311 q 343 106 420 106 q 302 131 302 112 l 384 163 l 400 220 l 400 286 q 311 384 364 338 l 311 392 q 327 408 313 408 l 335 408 q 376 376 371 376 l 368 392 l 368 408 l 384 408 l 384 425 q 302 498 326 498 l 302 507 q 327 531 302 518 m 327 473 q 351 457 327 457 l 351 449 q 261 368 349 436 l 245 392 l 245 400 q 327 473 245 413 m 196 465 l 204 465 q 220 449 220 463 l 204 425 q 286 327 204 420 l 261 311 q 163 408 250 311 l 155 408 l 155 425 q 196 465 155 435 m 204 359 q 220 327 220 339 q 196 245 196 285 l 196 220 q 245 147 196 180 q 302 253 302 166 q 294 261 294 253 q 302 269 302 261 l 294 269 q 277 172 288 248 l 261 172 q 245 253 245 222 q 327 351 245 306 q 351 343 342 343 l 351 335 l 311 286 l 319 286 q 327 294 319 294 q 343 220 343 256 q 245 106 307 106 q 155 229 155 140 l 155 253 q 204 359 155 323 z "},"D":{"ha":635,"x_min":0,"x_max":568,"o":"m 170 972 q 283 943 246 972 q 454 773 283 932 q 553 560 538 685 l 553 553 q 383 412 409 412 l 369 433 q 454 553 454 512 l 454 574 q 334 773 454 715 l 291 773 q 156 638 156 734 q 149 610 156 623 q 191 490 149 527 q 163 461 191 478 l 64 546 q 234 808 64 737 l 248 808 l 248 823 l 0 958 l 0 965 l 28 965 q 170 972 92 965 m 262 730 l 277 730 q 291 716 291 728 l 262 695 l 262 703 q 213 631 213 681 l 213 610 q 241 532 213 580 l 248 532 q 269 553 258 532 q 256 610 256 606 q 340 730 270 730 l 361 730 q 426 617 426 685 q 383 518 426 553 q 361 525 370 525 l 361 539 q 397 603 385 566 q 340 703 371 703 q 305 667 321 703 l 312 667 q 326 681 315 681 q 340 638 340 658 l 340 610 q 319 560 340 587 l 319 553 q 404 482 336 553 l 404 468 q 376 461 380 461 q 298 539 376 468 q 269 511 298 528 q 262 518 269 518 l 262 511 q 298 482 295 497 l 291 468 l 298 468 q 326 496 298 479 q 348 490 340 490 l 348 475 l 334 454 q 433 361 334 446 l 433 355 q 383 319 420 355 l 361 334 l 361 326 q 433 227 433 277 l 433 191 q 355 92 433 125 q 312 113 312 102 q 334 135 322 113 l 348 127 l 355 127 q 397 205 397 150 l 397 241 q 361 291 361 278 q 319 248 352 291 q 348 191 348 248 q 291 99 315 99 l 262 99 q 184 205 197 99 q 227 305 199 305 l 184 361 q 220 397 184 372 l 227 397 q 241 383 241 395 l 227 361 l 298 283 q 277 262 298 273 q 234 305 273 262 l 248 277 q 213 184 213 248 q 256 135 224 153 l 277 135 q 312 191 312 153 l 312 234 q 298 220 298 232 l 305 177 q 283 149 294 149 q 262 220 262 149 q 334 312 262 240 q 312 334 323 312 l 340 355 l 361 340 q 383 361 372 340 q 312 440 312 426 l 277 412 l 256 426 q 283 454 262 454 q 184 624 184 529 l 184 631 q 262 730 184 718 m 298 660 l 291 596 l 298 596 l 277 560 l 283 560 q 312 617 312 590 l 312 646 q 298 660 312 660 m 220 504 q 241 496 234 496 l 241 468 q 135 298 135 404 q 277 57 135 134 q 312 50 300 57 q 482 291 461 50 l 482 326 q 418 426 482 375 l 447 447 l 454 447 q 568 355 558 375 q 376 7 568 75 q 319 0 347 7 q 78 205 149 0 q 57 340 57 249 l 57 348 q 220 504 57 357 m 227 454 l 298 383 q 277 361 298 373 q 205 426 273 361 l 205 433 q 227 454 205 443 m 334 404 l 355 376 l 277 312 l 262 334 l 262 340 q 334 404 330 404 z "},"E":{"ha":468,"x_min":0,"x_max":399,"o":"m 8 972 l 374 972 l 374 831 l 366 831 q 158 922 231 922 l 158 698 l 166 681 q 158 673 158 681 q 224 606 168 673 l 191 581 q 83 665 110 665 q 75 640 75 648 l 92 606 l 66 590 l 50 590 q 25 781 25 640 l 25 864 q 8 972 25 897 m 282 648 q 357 573 293 648 q 324 532 341 535 q 291 565 311 532 q 307 581 307 565 q 282 590 298 581 q 199 515 268 590 l 174 548 q 282 648 174 557 m 116 640 q 149 606 130 640 l 149 581 q 83 524 125 581 l 83 507 q 100 490 100 507 q 116 507 116 490 q 149 481 149 494 q 83 391 83 416 l 100 382 l 108 382 q 125 399 125 382 q 116 424 116 415 l 149 448 q 166 324 166 370 l 166 108 q 158 100 166 100 q 182 41 169 41 q 382 141 315 41 q 399 125 399 138 l 399 116 q 391 108 399 108 l 399 92 l 399 0 l 0 0 q 25 100 25 79 q 33 432 25 124 q 92 490 45 432 l 83 490 q 66 473 83 473 l 58 473 q 25 524 58 490 l 25 532 q 116 640 116 618 m 141 565 q 208 490 146 565 l 174 465 l 116 532 l 116 540 q 141 565 116 552 m 249 565 l 266 565 q 357 473 277 565 l 357 465 q 266 382 328 421 q 224 424 254 382 q 249 448 224 435 l 274 432 l 299 465 q 241 540 241 524 q 249 565 249 556 m 241 507 q 274 481 274 494 l 182 399 l 166 399 l 166 440 q 241 507 208 490 z "},"F":{"ha":449,"x_min":0,"x_max":378,"o":"m 24 969 l 370 969 l 370 854 l 378 838 l 361 829 q 164 920 224 920 l 164 665 q 222 608 222 613 q 189 575 222 595 q 82 657 126 657 q 74 632 82 648 q 90 616 90 630 q 82 591 82 600 l 58 591 q 33 632 58 606 l 33 821 q 8 961 33 895 l 24 969 m 288 649 q 353 558 353 584 q 312 526 328 526 l 312 509 q 353 468 332 509 q 263 378 353 452 q 230 435 230 391 q 238 444 238 435 q 189 394 212 444 l 164 394 l 164 435 q 246 509 164 441 q 271 485 258 509 l 246 452 l 246 444 l 279 435 l 296 460 l 296 468 l 238 534 q 263 558 238 546 l 296 534 l 288 550 l 304 575 q 288 591 304 591 l 279 591 q 197 517 212 517 q 172 534 197 534 l 172 542 q 288 649 267 649 m 115 632 l 123 632 q 156 600 136 632 l 82 517 l 98 493 l 132 509 l 148 485 l 148 476 l 82 411 l 82 394 q 98 378 85 378 q 123 444 115 378 l 140 452 l 156 452 q 164 312 164 355 l 164 148 q 197 8 164 58 l 180 0 l 0 0 l 0 8 q 24 98 24 89 q 33 427 33 351 q 90 485 45 427 l 82 485 q 66 468 82 468 q 24 526 66 476 q 115 632 115 616 m 148 567 q 205 493 148 555 q 180 468 205 481 q 115 542 169 468 l 148 567 z "},"G":{"ha":654,"x_min":0,"x_max":585,"o":"m 313 972 q 560 749 477 972 l 560 724 l 470 667 q 379 881 470 784 q 305 914 335 914 l 296 914 q 115 758 171 914 q 107 700 115 732 q 157 568 107 614 l 157 559 q 132 543 132 559 q 8 634 41 615 l 8 642 q 256 964 50 964 q 313 972 256 972 m 248 865 l 256 865 q 272 848 272 862 l 256 815 l 239 823 q 189 774 211 817 l 189 692 q 288 559 189 637 l 321 585 l 338 559 l 338 551 q 264 486 321 551 l 256 486 q 239 502 239 486 l 239 511 l 272 551 l 256 543 q 149 741 149 621 q 248 865 149 838 m 338 865 q 429 708 429 840 l 429 692 q 379 609 429 643 q 354 634 367 609 q 395 700 395 655 l 395 733 q 338 823 395 781 q 280 774 293 807 l 280 692 q 296 708 296 692 l 296 741 l 288 783 l 313 799 l 330 799 l 338 741 l 338 733 q 248 601 338 666 l 231 626 l 231 634 q 256 650 256 634 q 239 716 239 681 l 239 733 q 338 865 258 865 m 313 650 q 445 527 443 541 l 445 519 q 387 477 430 519 l 363 511 q 387 535 374 511 q 288 634 376 535 l 313 650 m 189 585 l 198 585 q 214 568 214 582 q 91 404 91 437 l 91 378 q 239 65 91 153 l 296 57 l 305 57 q 478 263 452 57 l 478 271 q 470 296 478 280 l 478 329 q 445 461 478 420 l 445 469 l 568 469 q 585 452 585 467 l 585 74 q 379 -174 562 -174 q 280 -83 280 -158 q 346 -33 297 -33 q 404 -124 404 -33 q 478 33 478 -82 l 478 49 l 470 49 q 296 -1 403 -1 q 8 288 82 -1 q 0 378 0 345 l 0 404 q 189 585 24 438 m 198 527 q 280 444 280 458 q 264 428 280 428 q 173 502 244 431 q 198 527 173 514 m 321 527 q 437 412 422 446 l 387 370 q 363 378 372 378 l 363 404 q 387 420 387 404 q 296 494 313 494 l 296 502 q 321 527 296 514 m 198 469 q 214 452 214 467 l 214 436 l 198 412 q 272 321 272 354 l 256 313 q 149 404 165 404 l 149 420 q 198 469 149 431 m 321 469 q 346 444 333 469 q 264 370 346 422 q 239 378 248 378 l 239 404 q 321 469 256 404 m 321 404 l 330 404 q 445 239 445 314 q 346 106 420 106 l 321 106 q 305 123 305 106 q 313 148 313 139 l 354 148 q 404 247 404 178 q 305 387 397 295 q 321 404 307 404 m 198 354 l 206 354 q 222 321 206 341 q 189 247 189 310 l 189 222 q 239 148 189 176 l 248 148 q 296 222 296 172 l 296 279 l 330 279 l 338 230 q 239 106 317 106 q 149 239 149 134 q 198 354 149 313 m 330 354 l 346 329 q 280 239 280 282 q 288 205 280 220 q 264 172 276 172 l 256 172 q 239 230 256 189 q 330 354 239 303 z "},"H":{"ha":726,"x_min":0,"x_max":656,"o":"m 473 972 l 640 972 q 623 872 623 914 l 623 631 l 565 565 l 573 565 q 581 573 573 573 l 623 524 l 623 515 q 524 415 536 415 l 524 407 q 540 391 526 391 l 557 391 q 573 415 573 391 l 565 432 q 573 457 573 448 l 590 457 q 623 407 590 440 l 623 324 q 656 0 623 52 l 465 0 l 465 8 q 490 149 490 36 l 490 374 l 432 440 q 457 465 432 452 q 515 415 511 415 l 515 424 q 498 440 498 424 l 498 448 l 573 532 q 557 557 557 532 l 532 540 q 507 565 519 540 l 573 640 l 573 648 q 557 665 573 665 l 548 665 q 532 648 532 662 l 540 606 l 515 590 l 507 590 l 498 623 l 490 623 q 399 540 444 540 q 382 557 399 557 q 473 648 382 581 l 481 648 l 481 631 l 490 631 q 457 964 479 964 l 473 972 m 8 964 l 174 964 q 158 856 158 889 l 158 673 l 216 606 q 199 581 199 606 l 182 581 l 108 656 l 75 656 l 75 648 q 83 614 75 629 q 75 590 75 599 l 58 590 q 25 656 25 637 l 25 839 q 8 964 25 886 m 391 665 l 399 665 q 424 623 399 650 q 399 598 424 611 q 382 614 399 614 l 299 524 q 315 507 315 521 l 315 498 q 299 481 315 481 l 282 481 l 266 490 q 174 399 266 477 l 166 399 l 166 440 l 233 515 l 266 498 l 266 507 q 233 540 253 507 l 233 548 q 258 565 258 548 l 274 557 l 391 665 m 274 648 q 315 606 286 648 q 299 590 315 590 l 291 590 l 274 598 q 199 524 274 590 q 174 532 183 532 l 174 548 q 274 648 174 557 m 125 640 l 149 606 l 149 598 q 75 524 149 590 q 92 490 92 503 l 116 507 l 133 507 l 141 473 q 75 407 131 473 l 75 399 q 92 382 77 382 l 116 382 l 116 391 l 108 432 l 133 448 q 158 382 158 444 l 158 266 q 199 8 158 68 l 182 0 q 174 8 174 0 l 158 0 l 0 0 q 25 141 25 108 l 25 415 l 83 481 l 75 481 q 66 473 75 473 l 25 524 l 25 532 l 125 640 m 465 573 l 473 573 q 540 498 540 519 l 515 481 q 448 548 501 481 l 448 557 q 465 573 451 573 m 141 565 l 199 498 l 199 481 l 166 473 q 108 548 131 513 l 141 565 m 357 565 q 415 507 378 562 l 399 481 l 407 481 q 448 524 407 493 q 473 498 460 524 q 366 399 387 399 l 332 440 l 357 457 l 374 448 l 391 473 l 332 540 q 357 565 332 552 m 340 507 q 366 481 353 507 q 258 382 297 404 l 249 382 q 216 415 249 415 q 249 448 222 440 q 274 440 265 440 q 340 507 274 454 z "},"I":{"ha":430,"x_min":0,"x_max":362,"o":"m 255 972 q 264 964 255 964 q 239 659 239 917 l 239 618 l 247 618 q 288 684 247 663 q 362 576 309 647 l 264 453 l 288 437 q 304 453 291 453 l 296 469 l 296 477 q 321 503 296 490 l 330 503 q 346 469 330 490 l 346 453 q 272 370 293 378 q 189 486 209 453 q 214 519 202 519 l 222 519 q 247 486 227 486 q 313 585 247 505 q 280 618 313 597 q 264 602 280 602 l 247 610 q 280 568 263 572 q 247 527 264 531 q 206 576 247 553 l 206 568 q 222 552 222 566 q 157 469 216 530 l 140 469 l 132 511 q 206 585 193 585 l 206 593 q 181 610 193 593 q 157 602 165 602 q 123 642 157 606 l 123 898 q 107 964 123 905 l 173 964 l 255 972 m 91 659 q 173 568 98 659 q 140 535 173 555 q 74 602 111 602 l 58 568 q 66 544 66 552 l 41 527 q 8 576 8 544 l 91 659 m 91 576 l 99 576 q 123 552 111 576 l 123 544 q 91 503 91 507 l 99 503 q 107 511 99 511 q 165 437 138 448 l 206 445 l 247 387 l 247 82 l 255 0 l 107 0 q 123 91 107 11 l 123 222 q 132 296 123 252 q 74 469 132 390 l 91 494 l 82 494 q 58 437 58 464 l 74 428 l 91 437 l 99 395 l 99 387 q 74 362 99 375 q 0 461 64 362 q 91 576 37 488 z "},"J":{"ha":734,"x_min":0,"x_max":665,"o":"m 424 972 l 573 972 q 548 648 548 658 l 590 681 q 665 581 600 681 q 573 481 636 534 l 565 481 l 557 515 l 614 581 q 581 623 599 619 q 565 606 581 606 q 557 631 557 623 l 548 631 l 548 623 l 581 565 q 557 532 569 532 q 498 623 498 609 l 473 623 q 457 606 473 606 l 473 581 l 473 573 q 457 557 473 557 l 440 557 l 399 614 l 391 614 q 366 581 370 614 q 374 557 374 566 l 349 540 q 315 581 338 541 q 391 673 391 656 l 457 614 q 432 648 444 648 q 440 814 440 760 l 440 897 q 424 972 440 918 m 399 590 l 432 565 q 399 515 432 557 q 481 440 415 515 l 507 457 q 540 407 507 449 l 540 158 q 274 0 495 0 l 233 0 q 0 158 43 0 l 0 191 q 158 332 0 292 l 174 332 q 282 233 246 332 q 182 116 262 116 l 174 116 q 100 166 125 116 l 100 224 q 158 249 108 224 q 216 174 216 249 q 249 216 228 174 q 166 282 218 282 l 158 282 q 66 182 90 282 q 191 83 97 83 l 233 83 q 424 199 424 102 q 432 291 424 234 q 374 490 422 463 q 357 448 357 463 l 374 440 l 399 440 q 407 415 399 431 q 382 382 395 382 l 374 382 q 307 473 351 391 q 399 590 399 570 m 507 590 q 524 557 524 570 q 457 481 524 536 q 440 507 440 481 q 507 590 473 571 m 524 524 q 590 440 569 448 l 606 465 q 598 490 598 481 l 623 507 q 648 457 648 498 q 590 382 590 399 l 581 382 q 490 498 528 424 l 524 524 z "},"K":{"ha":791,"x_min":0,"x_max":719,"o":"m 294 972 q 302 964 294 964 q 277 727 294 924 l 269 727 l 196 719 l 196 711 l 204 711 q 294 727 277 719 q 319 719 310 719 l 319 669 l 269 669 l 277 653 l 277 539 q 261 523 277 523 l 163 523 l 163 612 l 155 629 q 229 653 209 653 l 229 661 l 212 661 q 106 596 127 631 q 155 588 119 588 l 155 547 q 139 531 155 531 l 16 531 q 0 547 0 531 q 188 703 87 703 l 188 711 l 180 711 q 155 703 164 703 l 155 711 q 123 964 147 869 l 131 964 q 294 972 173 964 m 719 964 q 629 621 629 898 q 490 425 629 514 l 481 425 l 465 481 q 515 564 515 515 l 515 784 q 596 964 515 924 l 719 964 m 359 865 l 376 865 q 481 694 449 825 l 481 686 q 473 645 473 673 q 408 735 408 673 l 392 735 q 351 612 378 612 l 351 604 l 359 604 q 392 612 363 604 q 425 588 425 600 l 425 572 l 294 539 l 286 555 l 286 588 l 343 596 l 343 604 l 319 604 q 359 865 319 713 m 392 686 q 507 572 507 626 q 473 507 507 527 q 384 629 427 629 l 384 669 l 392 686 m 368 547 l 368 433 l 359 416 l 368 416 q 400 425 382 425 l 408 384 q 286 351 378 368 l 277 368 l 277 400 l 351 408 l 351 416 q 311 457 311 416 l 319 490 l 319 498 l 311 498 q 294 473 311 473 l 253 473 q 131 457 208 473 l 131 441 l 155 408 l 155 359 q 8 481 96 359 l 8 507 q 172 515 119 515 l 311 515 q 368 547 311 547 m 376 507 l 384 507 q 481 400 456 507 l 481 351 q 400 163 481 230 q 327 343 374 163 l 368 351 l 376 351 q 400 302 380 302 q 425 368 425 343 q 376 465 425 414 l 376 507 m 261 465 l 269 449 l 269 384 q 294 16 269 111 l 277 8 l 163 8 l 147 16 q 163 253 163 127 l 163 441 q 261 465 163 461 m 564 465 q 653 98 629 341 q 686 8 659 98 l 669 0 l 653 0 l 637 8 l 637 0 l 621 8 l 531 8 l 531 41 q 507 425 531 254 l 564 465 z "},"L":{"ha":516,"x_min":0,"x_max":448,"o":"m 108 972 l 258 972 q 233 673 233 909 l 233 623 q 274 557 274 573 q 258 532 258 557 l 249 532 q 174 623 183 623 l 166 623 q 149 606 166 606 l 149 598 l 166 573 q 149 557 149 570 l 191 590 l 199 590 q 216 557 199 576 l 216 548 q 149 473 161 473 q 125 498 138 473 l 125 507 l 149 548 l 75 614 q 50 581 58 581 l 58 565 l 58 557 q 33 532 58 545 l 25 532 q 0 573 25 546 q 83 665 70 663 l 141 614 q 125 665 125 642 l 125 889 q 108 972 125 905 m 266 681 l 282 681 q 357 581 294 681 l 357 565 q 274 481 346 565 l 266 481 l 241 498 q 307 581 241 516 l 307 590 q 291 623 291 610 l 282 623 l 258 606 l 249 606 l 241 648 q 266 681 266 648 m 75 573 l 116 565 l 116 548 q 50 457 63 484 q 58 432 58 441 l 66 432 l 83 440 q 100 399 100 413 l 58 366 l 0 465 q 75 573 75 555 m 216 524 q 282 440 248 458 q 299 457 285 457 l 291 473 q 315 498 291 486 q 349 465 329 498 q 282 374 282 385 l 274 374 q 182 490 216 430 q 216 524 182 503 m 108 507 q 166 432 158 432 l 174 432 l 199 448 l 233 399 l 233 83 l 274 83 q 424 182 369 120 q 448 8 448 47 l 382 8 q 116 0 295 8 q 108 8 116 8 q 125 166 125 75 l 125 233 q 75 481 125 406 l 108 507 z "},"M":{"ha":866,"x_min":0,"x_max":796,"o":"m 17 972 l 125 972 q 210 897 195 972 q 352 612 338 622 l 352 620 l 343 637 l 385 729 l 402 729 q 528 469 402 715 q 536 444 536 453 q 494 352 536 440 l 486 352 q 452 419 464 352 q 477 452 465 419 q 385 612 421 576 q 369 578 385 578 q 360 603 360 594 l 352 603 l 352 595 q 385 511 385 536 q 352 452 369 452 q 227 712 352 470 q 184 804 184 781 l 176 804 l 176 787 q 168 8 168 306 l 17 8 q 33 151 33 75 l 33 670 q 0 964 33 836 l 17 972 m 595 972 l 779 972 q 754 620 754 836 l 762 603 q 754 595 762 595 l 762 562 q 796 8 768 8 l 796 0 l 704 0 l 645 8 q 620 804 645 113 q 503 570 600 804 q 452 645 484 572 q 595 972 519 789 m 293 545 q 335 494 302 545 q 318 452 318 467 q 385 293 385 317 l 385 285 q 352 243 363 243 l 252 444 l 293 545 m 419 545 l 427 545 q 452 477 427 534 q 377 343 391 347 q 352 419 352 404 q 419 545 402 539 m 427 419 l 444 419 q 629 17 444 392 l 629 8 l 486 8 q 402 168 463 12 l 402 176 q 435 218 424 217 l 444 218 q 536 50 444 176 l 553 50 l 553 58 q 452 268 452 254 q 318 8 381 172 l 176 8 q 310 310 292 310 q 343 243 310 295 q 252 50 289 145 l 277 50 q 419 318 367 254 q 444 285 431 285 q 402 360 410 360 q 427 419 427 402 z "},"N":{"ha":804,"x_min":0,"x_max":752,"o":"m 0 972 l 186 972 l 178 930 l 178 811 q 262 710 222 738 l 355 710 q 372 693 372 707 l 372 625 l 414 625 q 431 608 431 623 l 431 465 l 406 465 q 389 481 389 465 l 389 515 l 397 574 l 380 583 l 372 583 q 363 549 372 564 l 380 549 l 380 507 l 363 507 q 372 456 372 494 q 380 465 380 456 q 439 456 414 456 l 439 414 l 422 414 q 431 372 431 400 l 439 372 l 448 414 l 448 448 l 439 532 q 448 541 448 532 q 490 532 462 532 l 490 448 l 507 456 l 549 448 l 549 347 q 583 304 572 304 l 583 591 q 591 896 583 707 q 566 972 566 951 l 583 964 l 735 964 l 735 955 q 718 879 718 900 q 727 854 718 854 l 718 811 l 718 760 q 727 735 718 735 q 718 718 727 718 q 727 338 727 460 l 727 127 q 752 8 727 39 l 574 8 l 583 93 l 583 152 q 448 271 505 271 q 389 288 389 271 l 389 422 l 372 422 l 380 347 l 347 347 q 330 363 330 347 l 330 448 q 321 532 330 488 q 330 591 330 566 l 330 600 l 321 600 q 304 583 321 583 l 304 465 l 321 465 l 321 422 l 288 422 q 271 439 271 422 l 271 625 l 313 625 l 330 617 l 330 667 l 254 667 l 254 642 l 245 557 q 262 541 262 555 l 262 524 q 245 507 262 507 q 212 515 231 515 l 212 625 q 186 676 212 669 l 178 676 l 178 59 q 195 8 178 36 l 178 0 l 8 0 q 25 68 8 8 l 25 896 q 0 972 25 911 m 490 431 q 473 338 490 338 l 439 338 l 439 363 l 431 363 l 431 313 l 498 313 l 515 304 l 515 397 q 498 431 498 418 l 490 431 z "},"O":{"ha":669,"x_min":0,"x_max":603,"o":"m 293 972 q 545 762 478 972 q 562 654 562 687 l 562 645 q 394 486 512 587 q 369 511 382 486 q 452 595 369 522 q 460 654 460 628 q 310 913 460 852 l 293 913 q 100 704 126 913 l 100 679 q 151 562 100 612 q 125 536 151 549 l 117 536 q 0 637 22 606 q 184 955 0 863 q 293 972 222 972 m 227 863 q 260 846 260 857 q 201 804 260 831 l 176 762 l 176 720 q 277 570 176 648 l 277 562 q 260 545 277 545 q 142 695 142 625 l 142 745 q 227 863 142 829 m 335 863 q 427 695 427 823 q 377 612 424 656 q 352 637 365 612 q 385 695 385 650 l 385 737 q 335 821 385 787 l 310 821 q 268 754 268 800 l 268 679 q 293 729 285 679 q 285 787 285 762 l 302 796 q 327 745 327 787 l 327 720 q 293 645 327 690 l 302 645 l 302 654 q 410 562 364 616 l 385 545 q 285 637 285 606 l 252 603 l 235 629 l 268 670 l 252 662 l 243 662 l 227 720 q 335 863 243 863 m 184 587 q 218 562 218 574 q 92 410 115 454 q 302 50 92 113 l 318 50 q 511 327 511 96 q 452 477 511 448 q 435 486 452 486 l 435 503 q 460 528 435 515 q 603 377 603 459 l 603 360 q 427 17 603 123 q 335 0 395 0 l 302 0 q 25 243 109 0 q 8 352 8 281 l 8 377 q 168 562 8 416 l 184 587 m 310 587 q 335 578 326 578 l 335 562 q 260 486 335 551 q 243 503 243 486 l 243 519 q 310 587 262 519 m 318 528 q 444 419 334 528 q 394 377 398 377 l 385 377 q 369 394 369 377 l 385 419 q 302 494 321 494 l 302 519 q 318 528 318 519 m 193 519 l 201 519 q 277 452 241 500 l 277 444 q 260 427 277 427 q 168 503 168 494 l 193 519 m 327 469 q 352 452 327 452 l 352 444 q 268 369 344 422 l 260 369 q 243 385 243 369 q 327 469 243 397 m 210 460 l 218 444 l 201 419 l 201 410 q 285 318 279 340 l 260 302 l 151 410 q 210 460 180 460 m 335 402 q 452 243 452 330 l 452 227 q 360 109 436 109 l 335 109 q 318 125 318 109 l 335 151 q 360 142 351 142 q 410 227 392 142 l 410 235 q 310 385 410 305 q 335 402 310 402 m 210 352 q 227 318 210 339 q 201 243 201 286 l 201 193 q 260 142 231 142 q 302 184 282 142 l 302 193 l 293 193 q 277 168 293 168 l 268 168 q 252 235 268 193 q 327 352 252 279 q 352 343 343 343 l 352 318 q 293 260 335 318 l 293 218 q 310 201 296 201 q 327 285 310 285 l 335 285 q 352 210 352 222 q 252 100 315 100 q 159 235 159 137 l 159 243 q 210 352 159 315 z "},"P":{"ha":729,"x_min":0,"x_max":662,"o":"m 277 972 q 645 771 587 972 q 662 679 662 726 q 494 419 662 553 q 460 469 480 419 q 528 645 528 517 q 343 905 528 905 l 318 905 q 277 720 302 905 l 235 720 l 235 712 l 293 712 l 293 720 q 318 712 309 712 l 318 704 l 310 662 l 235 662 q 109 603 201 662 l 109 587 l 159 578 l 159 528 q 17 519 61 519 q 0 536 0 519 q 227 704 75 704 l 227 712 l 201 712 l 159 695 q 117 955 159 817 q 277 972 170 972 m 369 863 q 477 679 433 863 l 477 645 l 469 645 l 427 670 l 427 662 q 511 570 489 626 q 486 503 511 559 l 469 503 q 385 637 458 564 l 385 670 l 377 670 q 352 603 377 603 l 352 595 l 360 595 q 394 603 375 603 q 427 578 427 591 q 293 545 425 545 q 285 578 285 559 l 335 587 l 335 595 q 318 603 318 595 q 369 863 329 827 m 394 729 l 394 679 q 419 670 410 670 l 419 687 l 410 729 l 394 729 m 260 654 l 277 654 l 277 519 l 168 519 l 159 620 q 260 654 210 654 m 369 536 l 369 427 l 360 410 l 369 410 q 402 419 383 419 l 410 402 l 410 377 q 277 352 340 352 l 277 394 l 352 402 l 352 410 l 310 410 l 310 469 q 302 460 302 469 q 293 469 293 460 q 176 460 254 460 l 176 452 l 268 452 l 268 402 q 293 0 268 189 l 151 0 q 168 277 168 154 l 168 452 l 151 452 q 134 435 134 450 l 159 402 l 159 360 l 151 360 q 8 494 8 413 q 227 511 59 511 l 310 511 q 369 536 310 536 m 377 503 q 486 385 452 503 q 385 252 460 252 l 369 252 q 318 335 318 291 l 318 343 l 377 352 q 394 318 377 318 l 402 318 q 427 360 421 318 q 377 444 410 444 l 377 503 m 553 460 l 562 460 l 562 452 q 528 327 562 435 l 553 343 l 562 327 q 536 302 562 315 l 528 302 q 503 360 514 302 q 553 460 503 435 z "},"Q":{"ha":661,"x_min":0,"x_max":588,"o":"m 302 972 q 546 753 467 972 q 563 627 546 722 l 378 476 l 361 501 l 361 510 q 462 652 462 586 q 294 913 424 913 q 109 703 130 913 l 109 644 q 151 568 109 612 q 126 543 151 557 l 117 543 q 8 627 22 627 l 8 652 q 168 947 8 839 q 302 972 228 972 m 243 863 q 269 854 260 854 l 269 846 q 210 812 269 827 q 176 736 176 767 l 176 720 q 227 619 176 654 q 277 677 227 632 q 294 728 294 712 l 286 770 q 294 795 294 787 l 302 795 q 328 728 328 790 l 328 720 q 243 594 328 681 q 277 552 277 557 q 269 543 269 552 l 277 543 q 311 577 277 557 q 328 560 328 574 q 252 485 328 549 q 235 501 235 485 l 235 510 q 260 526 235 526 l 260 543 q 143 736 143 604 q 243 863 164 863 m 336 863 q 429 711 391 863 q 370 602 401 602 l 353 627 l 387 677 l 387 728 q 328 821 363 821 l 319 821 q 269 703 269 801 l 269 669 l 235 669 l 227 720 q 336 863 252 863 m 311 652 q 404 560 311 644 q 378 535 404 548 q 286 627 367 535 q 311 652 286 640 m 176 585 l 193 585 q 210 568 210 583 l 210 560 q 92 426 107 453 l 92 342 q 294 47 92 108 q 496 300 443 47 l 496 325 q 420 493 496 431 l 420 501 q 454 518 433 501 l 462 518 q 588 409 588 422 q 395 22 569 75 l 395 14 q 504 -53 436 14 q 538 -11 520 -15 q 588 -37 588 -16 l 588 -53 q 529 -112 588 -112 l 521 -112 q 387 -37 456 -112 q 361 -70 387 -70 l 336 -70 q 319 -53 319 -70 l 319 -20 l 328 -3 q 25 216 102 -3 q 0 392 0 303 l 0 401 q 176 577 0 412 l 176 585 m 193 526 q 269 451 204 526 l 269 443 q 252 426 269 426 q 168 501 168 493 q 193 526 168 513 m 311 526 q 429 417 429 425 q 378 367 429 406 q 353 392 366 367 q 378 417 365 392 q 294 501 370 417 l 294 510 q 311 526 296 526 m 193 468 l 210 443 l 193 417 l 269 325 q 243 300 269 313 q 143 409 243 319 q 193 468 157 447 m 319 468 l 336 443 l 336 434 q 252 359 257 359 l 227 392 q 319 468 235 392 m 319 401 l 328 401 q 437 233 437 317 q 361 106 437 157 l 311 106 l 294 115 q 319 149 307 149 l 336 140 q 395 241 395 160 q 294 384 395 296 l 319 401 m 193 350 q 218 317 205 350 q 185 233 195 317 l 185 216 q 227 149 185 170 l 252 149 q 294 250 283 149 l 286 250 q 311 283 298 283 q 336 224 325 283 q 260 106 317 139 l 218 106 q 143 233 143 157 q 193 350 165 350 m 319 350 q 336 334 336 347 l 336 325 q 277 216 277 277 l 269 165 l 252 165 q 235 241 235 220 q 319 350 235 286 z "},"R":{"ha":729,"x_min":0,"x_max":659,"o":"m 272 972 q 618 823 534 972 q 659 692 648 774 q 486 420 659 551 q 453 477 473 420 q 519 593 519 516 l 519 692 q 321 906 519 906 q 280 725 280 906 q 214 717 235 717 l 214 708 l 231 708 q 313 717 274 717 l 313 684 l 321 684 q 362 865 332 865 q 469 717 424 842 l 469 642 l 461 642 l 428 667 l 428 650 q 503 568 503 612 q 477 503 503 558 l 461 503 q 395 618 460 545 q 379 667 379 618 l 370 667 l 370 610 l 313 593 l 313 667 l 296 659 q 272 667 281 667 l 272 585 l 264 544 l 272 544 l 255 511 l 304 511 q 346 535 304 535 l 346 544 l 321 544 l 280 535 l 280 576 q 395 610 288 576 l 420 576 l 420 568 q 354 552 376 552 l 362 535 q 354 527 362 527 q 362 503 362 511 q 354 494 362 494 l 362 453 l 362 428 l 354 412 q 404 420 366 420 l 370 453 l 370 503 l 379 503 q 477 370 458 503 l 477 362 q 395 157 477 233 q 321 346 321 254 l 338 354 l 370 354 l 387 296 q 420 370 420 308 l 412 412 l 404 412 l 404 395 q 412 387 412 395 q 280 354 351 354 l 272 354 l 272 395 l 313 404 q 304 477 304 409 l 288 469 l 255 469 q 123 437 123 464 q 157 404 123 424 q 189 453 157 453 q 255 461 248 461 l 264 445 l 264 379 q 288 8 264 136 l 140 8 q 157 280 157 106 l 157 362 q 149 354 149 362 q 0 477 64 376 l 0 494 q 99 511 99 503 l 115 503 l 165 511 q 157 544 157 525 l 149 544 l 149 527 l 0 527 l 0 560 q 173 692 73 677 l 173 700 q 149 708 149 700 q 115 956 149 842 q 272 972 178 972 m 387 725 l 379 675 l 420 667 q 404 725 404 709 l 387 725 m 99 585 l 140 576 l 157 576 l 149 593 l 149 618 q 197 642 149 634 l 197 650 l 189 650 q 99 585 159 650 m 552 461 l 560 461 q 634 58 602 334 q 659 8 642 58 q 650 0 650 8 l 593 8 l 519 8 l 519 264 q 494 412 519 332 l 552 461 z "},"S":{"ha":659,"x_min":0,"x_max":590,"o":"m 282 972 l 307 972 q 557 789 557 972 q 415 648 526 648 q 315 739 315 671 l 315 781 q 432 872 315 856 l 440 872 q 490 814 490 851 q 448 747 490 772 l 432 747 q 374 798 374 747 q 349 764 361 798 q 399 690 349 721 l 440 690 q 515 806 515 729 l 515 823 q 315 913 472 913 q 166 798 166 882 l 166 781 q 291 623 166 730 q 307 573 307 578 l 315 573 l 315 581 q 307 623 307 592 q 382 524 382 587 l 407 524 q 490 399 490 524 q 424 349 490 349 l 424 357 l 415 357 l 415 340 q 490 299 453 299 q 532 332 528 315 l 532 374 l 498 415 l 498 448 l 507 448 q 590 332 553 448 l 590 249 q 399 16 590 115 q 274 0 321 0 l 233 0 q 0 158 43 0 l 0 191 q 158 332 0 292 l 174 332 q 282 233 246 332 q 182 116 262 116 l 174 116 q 100 166 125 116 l 100 224 q 158 249 108 224 q 216 174 216 249 q 249 216 228 174 q 166 282 218 282 l 158 282 q 66 182 90 282 q 191 83 97 83 l 233 83 q 424 199 424 102 l 424 208 q 374 374 374 339 l 366 374 l 366 349 q 282 481 291 349 q 315 490 301 481 q 324 457 324 475 l 366 457 q 332 565 366 485 l 315 565 l 315 540 l 274 540 q 199 648 274 606 l 182 648 q 125 614 138 648 l 125 581 q 174 524 174 528 l 174 498 l 166 498 q 16 623 99 498 l 0 681 l 0 723 q 83 897 0 787 q 282 972 195 972 m 216 623 l 233 623 q 249 590 233 610 q 216 565 216 577 l 216 548 q 282 448 216 512 l 282 415 q 174 573 174 460 q 216 623 186 608 m 233 532 l 340 532 l 349 498 l 249 498 q 233 515 233 498 l 233 532 m 391 515 l 391 490 l 399 473 q 374 465 382 465 l 374 457 l 399 457 q 432 465 403 457 l 440 448 l 440 424 l 382 424 l 382 415 q 407 366 407 415 l 415 366 q 457 407 415 382 l 457 415 q 399 507 457 450 l 399 515 l 391 515 m 332 448 l 332 407 l 366 391 q 374 424 366 409 l 357 424 l 340 415 l 340 448 l 332 448 z "},"T":{"ha":602,"x_min":0,"x_max":535,"o":"m 535 972 l 519 799 l 511 799 q 338 898 424 869 l 330 881 l 330 774 q 321 667 330 722 q 379 486 321 576 l 387 486 l 395 527 q 387 535 387 527 l 370 527 l 362 527 q 346 552 362 552 q 370 602 370 590 l 379 602 q 445 519 391 602 l 445 494 l 354 387 q 330 412 342 387 l 354 453 l 280 535 l 264 535 l 264 519 l 255 519 q 214 568 243 519 l 214 890 l 206 890 q 24 783 128 882 l 16 783 l 0 956 l 16 964 l 107 964 q 535 972 237 964 m 181 593 l 264 486 l 264 477 q 231 445 264 465 q 165 527 231 476 l 157 511 l 157 503 l 165 486 l 181 494 q 206 469 193 494 l 206 461 l 140 379 q 165 346 165 379 q 197 379 178 346 q 173 404 186 379 q 189 437 189 424 l 206 437 q 280 346 252 346 q 296 362 283 362 l 304 362 q 330 313 330 320 l 321 296 q 330 288 321 288 l 321 231 l 321 132 l 330 74 l 321 74 q 338 8 338 32 l 321 0 l 189 0 q 214 222 214 73 l 214 330 l 165 288 l 157 288 q 91 387 157 308 l 91 395 l 165 477 l 157 477 q 132 453 157 466 q 99 503 132 469 q 181 593 172 593 m 296 494 q 321 469 309 494 l 264 379 q 231 412 251 379 q 296 494 237 434 m 412 437 q 445 404 425 437 l 445 395 q 362 304 414 345 q 280 395 338 315 q 304 420 280 407 q 362 354 362 379 q 395 395 395 371 q 387 420 387 411 l 412 437 m 197 362 q 206 338 206 347 l 214 338 l 214 354 l 197 362 z "},"U":{"ha":739,"x_min":0,"x_max":673,"o":"m 16 972 l 166 972 l 182 964 l 174 947 l 174 598 l 233 532 l 199 507 q 100 590 133 590 l 83 565 l 100 540 q 75 515 100 528 q 41 557 75 519 l 41 714 q 33 747 41 733 q 41 781 41 762 l 41 872 q 0 964 41 895 l 16 972 m 481 972 l 665 972 q 640 847 640 897 l 640 557 q 557 473 640 545 l 548 473 l 524 490 l 598 581 l 573 598 l 565 598 q 548 581 548 595 l 548 540 q 540 524 540 540 l 524 524 q 490 913 509 605 q 465 964 481 913 l 481 972 m 407 598 l 448 548 q 432 524 432 548 l 424 524 l 399 540 l 357 490 l 366 490 l 382 498 q 440 448 414 448 l 440 440 q 407 407 440 427 l 399 407 q 349 465 399 424 l 349 481 l 324 465 q 299 481 324 481 l 299 490 q 407 598 299 502 m 498 581 l 507 581 l 507 540 q 432 465 507 529 l 424 465 q 399 490 412 465 l 498 581 m 274 573 l 291 573 q 332 540 332 551 q 307 515 332 528 q 282 524 291 524 q 208 448 282 513 l 182 481 q 274 573 274 557 m 125 565 l 141 565 q 166 532 141 552 l 92 448 q 108 415 108 429 l 133 432 q 158 407 145 432 l 158 399 q 100 349 149 399 l 92 349 l 92 324 q 108 307 94 307 l 133 307 l 133 315 l 125 357 l 158 382 q 182 166 172 362 q 282 83 229 83 l 349 83 q 515 224 463 83 l 515 299 l 457 366 q 473 399 473 386 l 490 399 q 565 324 490 377 l 598 324 l 598 332 l 590 374 l 606 382 q 648 340 618 382 l 648 191 q 673 16 648 103 l 656 8 l 515 8 l 515 125 l 507 125 q 274 0 444 0 q 41 282 62 0 l 41 349 l 92 407 q 33 457 66 407 q 125 565 125 548 m 498 507 l 557 440 l 557 432 q 532 407 557 420 q 465 473 532 418 q 498 507 471 498 m 141 498 q 216 415 216 454 q 199 399 199 413 q 125 465 179 399 q 141 498 141 486 m 598 498 q 648 457 632 487 l 648 448 q 557 340 557 357 q 524 374 543 340 l 524 382 l 590 457 l 573 481 l 598 498 m 282 490 q 332 432 332 436 q 307 407 332 425 l 274 424 q 199 332 274 391 l 199 324 l 182 324 l 174 366 q 266 440 233 440 q 274 432 266 432 l 274 440 q 249 465 262 440 l 249 481 q 282 490 254 481 m 473 457 l 498 424 q 391 324 442 361 q 349 349 363 349 l 349 374 l 391 382 q 399 374 391 374 q 473 457 399 391 m 357 440 q 382 415 369 440 q 282 315 382 404 l 282 307 q 241 349 271 307 l 241 357 q 266 382 241 369 q 282 366 269 366 q 357 440 282 376 z "},"V":{"ha":814,"x_min":0,"x_max":741,"o":"m 453 972 l 576 972 q 469 749 576 955 l 469 741 l 453 741 l 437 791 l 503 922 l 503 930 l 469 930 q 362 749 404 799 q 346 791 346 777 l 370 832 l 370 840 l 354 832 q 304 922 323 922 l 280 922 l 280 914 q 370 684 370 717 l 379 684 q 395 708 379 708 q 420 642 420 667 q 370 568 406 642 l 379 568 q 395 610 395 595 l 412 610 l 477 445 q 593 832 498 445 q 618 972 593 859 l 725 972 q 741 956 741 969 q 576 362 582 475 q 477 0 511 196 l 264 0 q 247 16 247 0 q 255 41 247 25 q 0 947 255 197 l 0 956 l 66 956 q 74 964 74 956 q 82 956 82 964 l 123 964 q 189 684 137 964 q 255 469 214 629 l 288 511 q 313 445 313 469 q 288 362 288 380 q 379 157 334 204 q 453 354 453 302 q 404 477 404 464 l 395 477 l 395 469 l 412 437 q 379 370 379 387 l 370 370 q 255 618 349 393 q 304 700 292 700 l 321 659 l 304 626 q 330 585 315 585 q 370 667 330 606 l 370 675 l 338 642 l 214 956 l 231 964 l 338 964 q 379 873 356 964 l 370 857 l 370 848 l 379 848 q 453 972 431 972 m 420 807 q 494 610 494 625 q 453 527 471 527 l 437 576 l 445 610 q 387 758 387 745 q 420 807 387 791 m 330 576 l 330 568 q 338 544 338 552 l 346 544 l 346 552 q 338 576 338 568 l 330 576 m 362 560 q 346 527 362 547 q 379 469 366 469 q 395 486 379 486 q 370 560 370 541 l 362 560 z "},"W":{"ha":1156,"x_min":0,"x_max":1089,"o":"m 452 972 q 536 812 504 899 q 511 754 511 771 q 419 922 423 873 l 385 922 l 385 913 q 503 670 503 675 l 511 670 l 511 687 q 494 704 494 687 q 629 972 587 913 l 754 972 l 754 964 l 637 670 q 595 729 623 670 q 679 930 679 920 l 670 930 q 528 654 648 930 l 511 662 q 528 603 528 629 q 511 562 511 576 l 494 562 q 302 964 415 748 l 410 964 l 452 972 m 888 972 l 1089 972 l 1089 964 q 930 494 1047 932 l 771 0 q 562 435 758 7 q 553 444 553 435 l 553 452 q 578 528 553 467 l 587 528 q 704 285 587 501 q 712 260 712 269 l 729 260 q 888 846 888 810 q 897 913 897 892 q 888 972 888 947 m 17 964 l 243 964 q 227 871 227 904 q 377 277 227 823 q 435 394 399 277 l 444 394 q 486 318 469 394 q 360 0 360 18 l 352 0 q 8 947 106 747 q 0 955 0 947 l 17 964 m 570 737 l 587 737 q 687 528 587 725 q 637 435 649 435 l 629 435 q 603 486 629 465 l 620 519 q 545 679 587 602 q 570 737 570 720 m 545 629 l 562 629 q 587 553 587 568 q 519 427 530 427 q 486 494 491 494 q 545 629 536 587 m 452 620 q 486 570 467 620 q 469 519 469 542 l 469 503 q 553 360 543 360 l 562 394 q 595 352 573 393 q 545 243 595 286 l 402 528 q 452 620 443 620 z "},"X":{"ha":646,"x_min":0,"x_max":574,"o":"m 17 972 l 178 972 q 237 769 178 949 q 288 828 245 769 l 296 828 q 406 583 406 603 l 380 498 l 372 498 q 347 541 353 498 l 355 583 q 347 608 347 600 q 304 541 337 608 l 304 532 l 313 532 l 313 549 l 330 549 l 574 8 q 566 0 566 8 l 549 8 l 498 8 l 448 0 q 389 118 389 0 q 296 330 296 307 l 288 330 q 169 8 169 39 l 17 8 l 0 17 q 220 456 188 424 q 237 406 237 411 l 212 321 l 228 321 l 304 439 l 313 439 l 330 397 l 313 363 q 338 321 338 363 l 372 321 l 296 507 l 288 507 q 271 481 288 481 q 262 507 262 498 l 254 507 l 254 490 q 288 439 267 490 q 254 389 267 389 q 169 600 169 556 q 203 650 189 650 l 228 608 q 220 583 220 592 q 237 532 237 555 l 245 532 q 321 659 294 659 q 288 718 296 718 q 262 710 271 710 q 288 650 288 667 q 262 591 262 608 l 245 591 q 17 955 228 640 l 17 972 m 422 972 l 574 972 l 574 964 q 397 667 397 684 l 380 667 l 355 735 q 406 930 406 826 l 406 955 q 422 972 408 972 z "},"Y":{"ha":871,"x_min":0,"x_max":807,"o":"m 0 972 l 199 972 q 217 954 217 969 l 208 937 q 391 616 208 848 l 391 599 l 364 581 q 304 642 364 594 l 295 642 q 269 616 283 642 q 277 590 277 600 l 252 572 q 208 625 239 572 q 243 659 222 625 l 243 668 l 0 963 l 0 972 m 608 972 l 807 972 l 807 963 q 564 668 643 755 q 590 608 590 625 q 503 494 503 517 l 486 494 q 469 529 486 508 l 469 538 q 538 633 524 605 q 512 659 526 633 l 494 651 q 469 677 482 651 l 469 694 q 599 850 490 694 q 608 928 608 897 l 608 972 m 408 738 l 416 738 q 503 599 503 608 q 477 564 490 564 q 382 659 423 642 l 364 686 l 364 694 q 408 738 364 706 m 313 625 q 338 599 325 625 l 338 590 l 313 555 q 399 460 386 462 q 416 477 402 477 q 460 425 429 477 l 460 0 l 313 0 l 313 9 q 338 182 338 85 l 338 356 q 277 512 338 471 l 260 486 q 277 469 263 469 l 304 469 q 313 434 313 454 q 277 391 296 394 l 269 391 q 208 494 269 408 q 313 625 305 625 m 416 625 q 443 599 429 625 l 443 590 q 373 503 387 503 q 347 529 361 503 q 416 625 373 584 m 434 555 q 512 469 501 469 q 529 486 529 469 q 521 521 521 501 l 555 547 l 581 503 l 581 494 q 503 399 515 399 q 408 521 408 495 q 434 555 421 555 z "},"Z":{"ha":524,"x_min":0,"x_max":460,"o":"m 0 972 l 452 972 q 327 645 410 898 l 327 620 l 335 620 q 385 679 335 679 q 394 687 385 687 l 435 553 q 302 477 313 477 l 302 494 l 293 494 l 293 486 q 318 444 304 444 q 377 511 358 511 q 394 444 394 458 q 285 385 296 385 l 252 469 l 243 469 l 243 460 q 260 410 260 427 q 159 75 176 180 l 168 75 q 460 184 393 117 l 460 17 q 444 0 460 0 q 0 8 85 8 l 0 17 l 142 460 q 117 545 142 478 q 159 562 144 562 q 184 553 176 553 q 277 620 193 576 q 285 612 277 612 l 285 620 l 268 654 q 235 645 254 645 l 243 629 l 243 620 q 201 603 243 603 q 176 662 176 640 l 151 662 q 134 645 134 659 l 142 629 q 125 612 125 626 l 134 612 q 159 637 134 624 l 176 637 l 184 595 q 92 528 93 536 l 92 519 q 109 503 95 503 q 117 511 109 511 l 134 469 l 92 435 l 75 435 l 42 553 q 117 612 117 604 q 84 670 84 612 q 184 729 107 670 l 201 729 q 227 654 201 714 l 235 654 l 227 695 q 285 897 285 880 l 285 922 l 268 913 l 235 913 q 0 846 132 913 l 0 972 m 335 612 l 343 595 l 343 570 l 335 553 q 385 587 385 572 q 377 620 377 601 l 335 612 m 285 595 q 260 545 285 566 q 285 519 285 545 q 310 545 297 519 q 293 595 293 579 l 285 595 m 193 511 q 184 536 184 527 l 176 536 l 176 528 q 210 469 196 469 q 243 486 243 475 l 227 519 q 252 545 238 519 l 243 545 q 193 511 201 511 z "},"_":{"ha":694,"x_min":0,"x_max":694,"o":"m 0 -68 l 694 -68 l 694 -109 l 0 -109 l 0 -68 z "},"`":{"ha":694,"x_min":144,"x_max":456,"o":"m 456 732 l 410 732 l 186 869 q 154 896 165 882 q 144 924 144 909 q 158 959 144 945 q 194 972 172 972 q 221 964 208 972 q 259 932 235 956 l 456 732 z "},"a":{"ha":952,"x_min":0,"x_max":884,"o":"m 578 695 q 622 678 610 687 q 706 617 668 659 q 726 595 715 602 q 745 564 726 585 q 840 665 793 634 q 879 695 848 672 l 884 695 q 823 397 823 444 q 820 327 820 369 l 820 279 q 851 1 820 258 l 614 1 l 600 62 q 603 64 603 62 l 600 64 q 513 20 547 20 q 206 -41 436 20 q 103 6 175 -41 q 58 56 78 28 q 50 67 52 56 q 14 154 14 130 q 8 162 11 154 l 11 168 q 5 190 5 182 l 8 190 q 3 212 3 200 l 3 221 q 5 224 3 224 q 0 235 3 235 l 3 240 l 3 243 q 0 246 3 246 q 3 254 3 252 l 0 260 q 5 277 3 277 q 3 279 5 279 q 8 299 5 299 q 5 302 8 302 q 58 444 22 387 q 83 489 58 450 q 120 536 93 496 q 137 550 127 536 q 248 634 190 606 q 474 670 295 634 q 578 695 554 695 m 418 583 l 418 587 q 329 528 357 567 q 279 467 279 479 l 245 416 q 223 369 223 377 q 215 363 223 363 q 218 355 218 358 q 198 294 207 333 l 201 294 q 195 271 195 283 l 195 260 l 190 260 l 193 254 q 190 252 193 252 l 193 246 l 193 243 q 190 240 193 240 l 193 235 q 190 224 193 229 l 195 187 q 193 184 193 187 q 198 182 198 184 l 195 176 q 229 106 201 145 q 296 64 256 79 l 301 67 l 315 67 q 318 64 318 67 q 346 73 340 68 l 351 71 q 357 76 353 76 l 363 73 q 374 84 363 77 l 379 81 l 382 81 q 413 101 382 91 q 435 117 413 106 q 513 204 498 174 l 530 229 l 555 277 q 564 291 556 291 l 561 296 l 583 355 l 581 360 q 586 382 586 370 l 586 394 l 591 394 l 589 399 q 591 402 589 402 l 589 408 l 589 410 q 591 414 589 414 l 589 419 q 591 430 589 425 l 586 467 q 589 469 589 467 q 583 472 583 469 l 586 477 q 566 528 581 500 l 566 533 l 561 530 q 541 558 561 539 l 541 562 l 536 558 q 483 589 536 570 q 471 587 477 587 l 471 589 l 466 587 q 458 589 460 589 l 458 587 q 449 589 452 589 q 418 583 444 589 z "},"b":{"ha":863,"x_min":0,"x_max":793,"o":"m 287 971 l 287 968 q 256 613 285 917 q 360 642 291 642 q 603 694 475 663 l 606 694 q 682 658 660 680 q 739 603 707 648 q 747 593 745 603 q 781 511 781 534 q 785 504 783 511 l 783 498 q 788 477 788 485 l 785 477 q 791 457 791 468 l 791 449 q 788 446 791 446 q 793 436 790 436 l 791 431 l 791 428 q 793 425 791 425 q 791 418 791 420 l 793 412 q 788 397 791 397 q 791 394 788 394 q 785 376 789 376 q 788 373 785 373 q 739 240 772 294 q 715 199 739 235 q 682 154 707 192 q 665 141 675 154 q 566 65 618 91 q 258 5 486 65 q 212 21 237 6 q 133 78 169 39 q 44 5 117 45 q 28 0 39 0 q 71 285 71 212 q 78 493 78 427 q 58 822 78 678 q 3 935 38 894 l 0 940 q 287 971 271 971 m 457 590 l 457 593 q 387 551 397 572 q 360 525 382 551 q 313 465 336 504 q 271 384 272 397 l 267 384 q 269 376 269 378 q 250 319 259 355 l 253 319 q 248 298 248 309 l 248 287 l 243 287 l 245 282 q 243 279 245 279 l 245 274 l 245 271 q 243 269 245 269 l 245 264 q 243 253 245 258 l 248 219 q 245 216 245 219 q 250 214 250 216 l 248 209 q 267 164 253 184 l 267 162 l 264 157 l 269 159 l 271 159 q 342 104 279 130 l 347 107 l 381 107 l 389 112 l 394 110 q 399 115 395 115 l 405 112 q 415 123 405 116 l 420 120 l 422 120 q 452 138 422 129 q 473 154 452 144 q 545 235 531 207 l 561 258 l 585 302 q 593 316 585 316 l 590 321 l 611 376 l 608 381 q 613 402 613 391 l 613 412 l 618 412 l 616 418 q 618 420 616 420 l 616 425 l 616 428 q 618 431 616 431 l 616 436 q 618 446 616 441 l 613 480 q 616 483 616 480 q 611 486 611 483 l 613 491 q 595 538 608 512 l 595 543 l 590 541 q 572 566 590 548 l 572 569 l 566 566 q 517 595 566 578 q 507 593 512 593 l 507 595 l 501 593 q 493 595 496 595 l 493 593 q 486 595 488 595 q 457 590 481 595 z "},"c":{"ha":906,"x_min":0,"x_max":843,"o":"m 668 695 q 824 673 824 695 q 642 446 819 671 q 639 440 639 446 q 585 542 633 442 q 505 599 541 592 q 465 606 497 603 q 454 604 460 604 q 451 606 454 606 l 451 604 l 446 606 q 403 601 433 606 l 403 604 q 330 561 340 583 q 303 534 326 561 q 255 473 279 513 q 212 389 213 404 l 207 389 q 210 381 210 384 q 191 322 199 360 l 193 322 q 188 300 188 312 l 188 290 l 182 290 l 185 284 q 182 282 185 282 l 185 277 l 185 274 q 182 271 185 271 l 185 266 q 182 255 185 260 l 188 220 q 185 218 185 220 q 191 215 191 218 l 188 210 q 207 163 193 184 l 207 161 l 204 156 l 210 158 l 212 158 q 263 110 214 140 q 311 102 280 104 q 561 137 402 102 q 781 239 631 160 q 843 269 838 269 l 843 266 q 730 37 730 41 q 609 62 618 62 l 588 62 q 526 64 562 62 q 244 11 315 38 q 199 0 205 0 q 99 45 169 0 q 56 94 75 67 q 48 104 50 94 q 14 188 14 165 q 8 196 11 188 l 11 201 q 5 222 5 215 l 8 222 q 3 244 3 233 l 3 252 q 5 255 3 255 q 0 266 3 266 l 3 271 l 3 274 q 0 277 3 277 q 3 284 3 281 l 0 290 q 5 306 3 306 q 3 309 5 309 q 8 328 5 328 q 5 330 8 330 q 56 467 22 412 q 99 532 56 479 q 132 569 102 542 q 233 647 180 621 q 588 687 588 677 q 668 695 642 695 z "},"d":{"ha":825,"x_min":0,"x_max":755,"o":"m 334 972 q 690 599 393 908 q 687 596 687 599 q 697 586 691 596 q 707 578 701 578 q 723 548 707 572 q 735 521 723 544 q 748 483 735 505 l 745 477 q 751 457 751 465 l 748 457 q 753 437 753 448 l 753 429 q 751 427 753 427 q 755 417 752 417 l 753 412 l 753 410 q 755 407 753 407 q 753 399 753 402 l 755 394 q 751 379 753 379 q 753 376 751 376 q 748 359 751 359 q 751 356 748 356 q 703 227 735 279 q 680 187 703 222 q 647 144 671 180 q 631 132 641 144 q 536 58 586 83 q 237 0 457 58 q 144 43 209 0 q 104 88 121 63 q 96 98 98 88 q 63 177 63 155 q 58 184 60 177 l 60 189 q 56 210 56 203 l 58 210 q 53 230 53 219 l 53 237 q 56 240 53 240 q 51 250 54 250 l 53 255 l 53 258 q 51 260 53 260 q 53 268 53 265 l 51 273 q 56 288 53 288 q 53 290 56 290 q 58 309 55 309 q 56 311 58 311 q 124 475 79 415 l 159 521 q 290 612 246 612 q 463 640 302 612 l 463 642 q 56 925 431 668 q 0 963 6 963 l 0 965 q 334 972 165 970 m 429 566 l 429 568 q 361 528 371 548 q 336 503 357 528 q 290 445 313 483 q 250 366 251 380 l 245 366 q 248 359 248 361 q 230 303 238 339 l 233 303 q 227 283 227 294 l 227 273 l 222 273 l 225 268 q 222 265 225 265 l 225 260 l 225 258 q 222 255 225 255 l 225 250 q 222 240 225 244 l 227 208 q 225 205 225 208 q 230 202 230 205 l 227 197 q 245 154 233 174 l 245 152 l 243 146 l 248 149 l 250 149 q 318 96 258 121 l 323 98 l 326 98 q 328 96 328 98 l 334 98 l 336 98 q 338 96 338 98 q 364 104 358 99 l 369 101 q 374 106 370 106 l 379 104 q 389 114 379 107 l 394 111 l 397 111 q 425 129 397 119 q 445 144 425 134 q 515 222 501 195 l 530 245 l 553 288 q 561 300 554 300 l 558 306 l 578 359 l 576 364 q 581 384 581 373 l 581 394 l 586 394 l 584 399 q 586 401 584 401 l 584 407 l 584 410 q 586 412 584 412 l 584 417 q 586 427 584 422 l 581 460 q 584 463 584 460 q 578 465 578 463 l 581 470 q 564 515 576 490 l 564 521 l 558 518 q 541 546 558 521 l 536 543 q 488 571 536 554 q 477 568 484 568 l 477 571 l 473 568 q 465 571 467 571 l 465 568 q 457 571 460 571 q 429 566 453 571 z "},"e":{"ha":920,"x_min":0,"x_max":850,"o":"m 623 696 q 741 636 651 696 q 801 525 787 592 q 804 500 804 515 l 804 438 q 782 357 804 376 l 200 357 q 192 325 200 349 l 195 325 q 189 303 189 315 l 189 292 l 184 292 l 186 287 q 184 284 186 284 l 186 279 l 186 276 q 184 273 186 273 l 186 268 q 184 257 186 262 l 189 222 q 186 219 186 222 q 192 216 192 219 l 189 211 q 208 165 195 186 l 208 162 l 205 157 l 211 159 l 214 159 q 265 111 216 141 q 314 103 283 106 q 566 138 406 103 q 787 241 637 161 q 850 271 845 271 l 850 268 q 736 38 736 42 q 614 62 623 62 l 593 62 q 530 65 567 62 q 246 11 317 39 q 200 0 206 0 q 100 46 170 0 q 57 95 76 68 q 49 106 51 95 q 14 189 14 167 q 8 197 11 189 l 11 203 q 5 224 5 217 l 8 224 q 3 246 3 235 l 3 254 q 5 257 3 257 q 0 268 3 268 l 3 273 l 3 276 q 0 279 3 279 q 3 287 3 284 l 0 292 q 5 309 3 309 q 3 311 5 311 q 8 330 5 330 q 5 333 8 333 q 60 481 7 372 q 84 517 84 515 q 111 555 95 525 q 162 604 115 555 q 243 652 224 652 q 598 693 555 680 q 623 696 612 696 m 406 606 l 406 609 q 333 566 343 587 q 300 533 328 566 q 243 454 275 508 l 636 454 q 579 557 591 549 q 492 609 545 597 q 468 612 470 609 q 457 609 463 609 q 454 612 457 612 l 454 609 l 449 612 q 406 606 437 612 z "},"f":{"ha":839,"x_min":0,"x_max":766,"o":"m 652 972 q 694 957 683 965 q 766 899 738 936 q 669 726 675 743 l 666 726 l 661 758 q 663 760 663 758 q 658 763 658 760 l 661 768 q 642 812 655 793 l 642 815 l 645 821 l 640 818 l 637 818 q 640 821 637 821 l 621 847 l 616 844 q 572 873 609 859 l 566 870 l 564 870 q 561 873 561 870 l 555 870 q 548 873 551 873 l 548 870 q 540 873 543 873 q 513 868 516 868 l 513 870 q 440 823 458 850 q 380 742 395 777 q 372 729 376 742 q 346 679 362 722 q 336 661 341 661 l 338 655 l 322 616 q 320 514 320 551 l 320 506 q 317 496 320 500 q 320 493 317 493 q 317 488 320 488 q 320 454 317 486 q 317 383 320 447 l 621 383 l 621 380 q 569 260 585 300 l 315 260 q 309 254 309 259 l 309 215 q 307 155 309 190 q 325 3 312 125 q 100 -52 150 -42 q 134 111 123 13 q 144 260 144 225 l 0 260 l 0 262 l 50 383 l 149 383 q 152 401 149 391 l 146 540 l 144 540 l 146 545 l 146 548 q 144 551 146 551 q 146 558 146 555 l 144 564 q 149 579 146 579 q 146 582 149 582 q 152 600 149 600 q 149 603 152 603 q 170 684 160 656 l 199 747 q 233 794 218 783 q 264 836 235 809 q 296 868 293 868 q 393 918 347 918 q 618 965 543 941 q 652 972 642 972 z "},"g":{"ha":928,"x_min":-3,"x_max":860,"o":"m 562 692 q 605 675 593 684 q 686 616 650 656 q 705 594 695 601 q 724 564 705 585 q 817 662 772 633 q 854 692 824 669 l 860 692 q 800 401 800 448 q 798 334 798 374 l 798 288 q 827 16 798 267 l 825 16 l 827 11 l 827 3 q 719 -182 827 -52 q 675 -214 700 -203 q 467 -244 585 -214 q 266 -312 309 -288 l 236 -312 q 57 -260 127 -312 q 19 -217 57 -256 q -3 -149 -3 -182 q 54 -19 -3 -97 q 100 19 57 -19 l 103 19 q 57 71 76 43 q 49 81 51 71 q 14 165 14 142 q 8 174 11 165 l 11 179 q 5 201 5 193 l 8 201 q 3 222 3 211 l 3 231 q 5 233 3 233 q 0 244 3 244 l 3 250 l 3 252 q 0 255 3 255 q 3 263 3 260 l 0 269 q 5 285 3 285 q 3 288 5 288 q 8 307 5 307 q 5 309 8 309 q 57 448 22 392 q 81 491 57 454 q 117 537 90 498 q 133 551 123 537 q 241 632 185 606 q 461 667 287 632 q 562 692 538 692 m 407 583 l 407 586 q 320 529 347 567 q 271 469 271 481 l 239 420 q 217 374 217 382 q 209 369 217 369 q 212 361 212 363 q 193 301 201 340 l 195 301 q 190 279 190 291 l 190 269 l 184 269 l 187 263 q 184 260 187 260 l 187 255 l 187 252 q 184 250 187 250 l 187 244 q 184 233 187 238 l 190 198 q 187 195 187 198 q 193 193 193 195 l 190 187 q 222 119 196 157 q 288 79 248 93 l 293 81 l 307 81 q 309 79 309 81 q 336 87 330 82 l 342 84 q 347 90 342 90 l 353 87 q 415 103 353 96 q 526 127 424 109 l 526 100 l 529 95 q 334 22 439 73 q 241 -65 250 -30 q 228 -90 228 -76 l 228 -125 q 255 -174 241 -174 q 347 -203 281 -203 q 353 -206 347 -206 q 483 -157 417 -197 q 559 -71 529 -130 q 589 5 578 -41 l 591 5 q 570 469 580 469 q 572 472 572 469 q 567 475 567 472 l 570 480 q 551 529 564 503 l 551 534 l 545 532 q 526 559 545 540 l 526 562 l 521 559 q 469 589 521 570 q 458 586 465 586 l 458 589 l 453 586 q 445 589 448 589 l 445 586 q 437 589 439 589 q 407 583 432 589 z "},"h":{"ha":981,"x_min":0,"x_max":916,"o":"m 296 973 l 296 970 q 264 604 294 917 q 372 634 300 634 q 622 688 490 655 l 625 688 q 703 650 681 672 q 762 593 730 640 q 770 583 768 593 q 805 499 805 522 q 810 491 808 499 l 808 486 q 813 465 813 472 l 810 465 q 816 443 816 454 l 816 435 q 813 432 816 432 q 819 421 815 421 l 816 416 l 816 413 q 819 410 816 410 q 816 402 816 405 l 819 397 q 813 380 816 380 q 816 378 813 378 q 810 359 814 359 q 813 357 810 357 q 730 168 790 245 q 694 125 707 135 q 682 109 682 111 q 916 144 909 144 q 829 1 829 5 l 689 1 q 328 4 551 1 l 326 4 l 326 7 q 506 152 436 83 q 587 252 517 168 q 603 281 595 271 q 611 297 603 297 l 608 302 l 630 359 l 627 365 q 633 386 633 374 l 633 397 l 638 397 l 635 402 q 638 405 635 405 l 635 410 l 635 413 q 638 416 635 416 l 635 421 q 638 432 635 427 l 633 467 q 635 469 635 467 q 630 472 630 469 l 633 477 q 614 526 627 500 l 614 532 l 608 529 q 590 556 608 537 l 590 559 l 585 556 q 533 585 585 568 q 522 583 528 583 l 522 585 l 517 583 q 509 585 512 585 l 509 583 q 500 585 504 585 q 471 580 496 585 l 471 583 q 399 540 409 561 q 372 513 394 540 q 323 451 347 491 q 280 368 281 381 l 275 368 q 277 359 277 362 q 258 300 267 338 l 261 300 q 256 279 256 290 l 256 268 l 250 268 l 253 262 q 250 260 253 260 l 253 254 l 253 252 q 250 249 253 249 l 253 243 q 250 227 250 229 l 253 222 q 250 211 250 217 l 253 197 l 250 197 l 253 193 l 261 -23 l 258 -23 q 81 -12 258 -12 q 30 -31 39 -31 l 30 -28 q 73 265 73 190 q 81 480 81 412 q 59 820 81 671 q 3 935 39 894 l 0 941 q 296 973 279 973 z "},"i":{"ha":505,"x_min":0,"x_max":438,"o":"m 249 972 q 438 890 425 899 l 161 745 q 33 786 33 781 q 159 895 50 797 q 249 972 232 962 m 269 706 l 271 706 l 271 425 q 309 0 271 87 l 304 3 l 58 3 l 52 0 l 52 3 q 96 282 80 34 l 96 328 q 3 586 96 532 q 0 589 0 586 l 0 591 q 269 706 251 701 z "},"j":{"ha":683,"x_min":3,"x_max":615,"o":"m 425 972 q 615 890 602 899 l 338 744 q 209 785 210 781 q 335 895 225 796 q 425 972 408 962 m 541 713 q 497 461 497 536 l 497 -14 q 409 -173 497 -70 q 178 -280 290 -280 q 94 -283 165 -280 q 3 -241 49 -275 l 3 -236 q 123 -140 14 -229 q 189 -217 161 -177 l 192 -217 q 247 -39 247 -92 q 280 189 258 -1 q 275 585 275 463 q 247 587 262 585 q 99 541 220 587 l 99 543 q 149 705 149 699 l 159 705 q 304 684 229 692 q 541 713 372 684 z "},"k":{"ha":890,"x_min":0,"x_max":821,"o":"m 294 972 l 294 969 q 262 611 264 611 l 264 600 q 257 399 260 420 q 553 662 279 416 q 647 654 633 656 l 819 672 l 821 672 l 821 669 q 396 354 684 573 q 642 111 627 111 q 784 28 717 48 q 789 25 784 25 l 789 20 q 637 -2 692 -2 q 511 28 574 -2 q 252 250 404 102 l 249 231 l 252 226 q 249 215 249 221 l 252 201 l 249 201 l 252 196 l 260 -18 l 257 -18 q 80 -7 257 -7 q 29 -26 39 -26 l 29 -23 q 72 269 72 194 q 80 482 80 414 q 59 819 80 671 q 3 935 39 893 l 0 940 q 294 972 277 972 z "},"l":{"ha":538,"x_min":0,"x_max":469,"o":"m 303 973 l 303 970 q 270 601 273 601 q 273 593 270 598 q 256 243 259 277 q 259 232 259 238 l 256 232 l 259 227 q 256 210 256 212 l 259 204 q 256 193 256 199 l 259 179 l 256 179 l 259 174 l 259 144 q 264 116 260 116 l 469 146 q 380 0 380 4 q 264 5 337 0 q 31 -55 160 5 l 31 -52 q 75 248 75 172 q 83 469 83 398 q 60 816 83 664 q 3 935 40 892 l 0 940 q 303 973 286 973 z "},"m":{"ha":1516,"x_min":0,"x_max":1447,"o":"m 633 695 q 748 629 700 677 q 770 600 770 608 l 778 600 q 873 637 808 637 q 1149 695 1021 663 l 1152 695 q 1232 657 1209 680 q 1291 600 1259 646 q 1299 589 1297 600 q 1335 504 1335 527 q 1341 496 1338 504 l 1338 490 q 1343 469 1343 476 l 1341 469 q 1346 447 1346 458 l 1346 439 q 1343 436 1346 436 q 1349 425 1345 425 l 1346 419 l 1346 416 q 1349 414 1346 414 q 1346 406 1346 408 l 1349 400 q 1343 384 1346 384 q 1346 381 1343 381 q 1341 362 1344 362 q 1343 359 1341 359 q 1259 168 1320 245 q 1223 125 1236 135 q 1210 108 1210 111 q 1447 144 1441 144 q 1360 -1 1360 3 l 1218 -1 q 852 1 1078 -1 l 849 1 l 849 4 q 1032 152 961 82 q 1114 253 1043 168 q 1131 283 1122 273 q 1139 299 1131 299 l 1136 304 l 1158 362 l 1155 368 q 1160 389 1160 378 l 1160 400 l 1166 400 l 1163 406 q 1166 408 1163 408 l 1163 414 l 1163 416 q 1166 419 1163 419 l 1163 425 q 1166 436 1163 431 l 1160 471 q 1163 474 1163 471 q 1158 477 1158 474 l 1160 482 q 1141 531 1155 505 l 1141 536 l 1136 534 q 1117 562 1136 543 l 1117 564 l 1112 562 q 1059 591 1112 573 q 1048 589 1055 589 l 1048 591 l 1043 589 q 1035 591 1038 591 l 1035 589 q 1027 591 1029 591 q 997 586 1022 591 l 997 589 q 923 545 934 567 q 896 517 918 545 q 846 455 871 496 q 803 370 804 385 l 798 370 q 800 362 800 365 q 781 302 790 341 l 784 302 q 778 280 778 292 l 778 269 l 772 269 l 775 264 q 772 261 775 261 l 775 256 l 775 253 q 772 250 775 250 l 775 245 q 772 229 772 231 l 775 222 q 772 212 772 218 l 775 198 l 772 198 l 775 193 l 784 -26 l 781 -26 q 601 -15 781 -15 q 549 -34 559 -34 l 549 -31 q 639 362 623 328 l 636 368 q 642 389 642 378 l 642 400 l 647 400 l 644 406 q 647 408 644 408 l 644 414 l 644 416 q 647 419 644 419 l 644 425 q 647 436 644 431 l 642 471 q 644 474 644 471 q 639 477 639 474 l 642 482 q 623 531 636 505 l 623 536 l 617 534 q 598 562 617 543 l 598 564 l 593 562 q 541 591 593 573 q 530 589 536 589 l 530 591 l 524 589 q 516 591 519 591 l 516 589 q 508 591 511 591 q 478 586 503 591 l 478 589 q 404 545 415 567 q 377 517 399 545 q 328 455 352 496 q 284 370 285 385 l 279 370 q 281 362 281 365 q 262 302 271 341 l 265 302 q 259 280 259 292 l 259 269 l 254 269 l 256 264 q 254 261 256 261 l 256 256 l 256 253 q 254 250 256 250 l 256 245 q 254 229 254 231 l 256 222 q 254 212 254 218 l 256 198 l 254 198 l 256 193 l 265 -26 l 262 -26 q 82 -15 262 -15 q 30 -34 40 -34 l 30 -31 q 77 307 77 200 q 82 458 82 446 q 58 608 82 542 q 0 660 40 637 l 0 663 l 3 663 q 300 676 269 676 l 300 673 l 292 627 l 295 627 q 393 644 298 634 q 631 695 496 663 l 633 695 z "},"n":{"ha":992,"x_min":0,"x_max":925,"o":"m 631 695 q 710 657 688 680 q 770 600 737 646 q 778 589 776 600 q 813 505 813 528 q 819 496 816 505 l 816 491 q 821 469 821 477 l 819 469 q 824 448 824 459 l 824 439 q 821 437 824 437 q 827 426 824 426 l 824 420 l 824 418 q 827 415 824 415 q 824 407 824 410 l 827 401 q 821 385 824 385 q 824 382 821 382 q 819 363 823 363 q 821 361 819 361 q 737 170 798 248 q 702 127 714 137 q 688 111 688 113 q 925 146 919 146 q 838 1 838 5 l 696 1 q 332 4 557 1 l 329 4 l 329 7 q 511 154 441 85 q 593 254 522 170 q 610 284 601 274 q 618 300 610 300 l 615 306 l 637 363 l 634 369 q 640 391 640 378 l 640 401 l 645 401 l 642 407 q 645 410 642 410 l 642 415 l 642 418 q 645 420 642 420 l 642 426 q 645 437 642 432 l 640 472 q 642 475 642 472 q 637 477 637 475 l 640 483 q 621 532 634 505 l 621 537 l 615 534 q 595 562 615 543 l 595 564 l 590 562 q 538 592 590 574 q 528 589 534 589 l 528 592 l 522 589 q 514 592 517 592 l 514 589 q 506 592 509 592 q 476 587 501 592 l 476 589 q 403 545 413 567 q 376 518 398 545 q 326 456 351 496 q 283 372 283 386 l 277 372 q 280 363 280 366 q 261 303 270 342 l 264 303 q 258 281 258 294 l 258 271 l 253 271 l 256 265 q 253 262 256 262 l 256 257 l 256 254 q 253 252 256 252 l 256 246 q 253 230 253 232 l 256 224 q 253 214 253 220 l 256 200 l 253 200 l 256 195 l 264 -23 l 261 -23 q 81 -12 261 -12 q 30 -31 40 -31 l 30 -28 q 73 268 73 192 q 81 475 81 421 q 60 611 81 547 q 0 665 45 638 l 3 665 l 299 679 l 299 676 q 288 625 294 637 q 378 641 288 634 q 629 695 493 663 l 631 695 z "},"o":{"ha":802,"x_min":0,"x_max":734,"o":"m 545 694 q 621 658 600 680 q 679 602 647 647 q 686 592 684 602 q 721 510 721 532 q 726 503 723 510 l 723 497 q 728 476 728 484 l 726 476 q 731 455 731 467 l 731 447 q 728 444 731 444 q 734 434 730 434 l 731 429 l 731 426 q 734 423 731 423 q 731 416 731 418 l 734 410 q 728 395 731 395 q 731 392 728 392 q 726 374 729 374 q 728 371 726 371 q 679 237 713 290 q 655 195 679 231 q 621 150 646 188 q 605 137 614 150 q 505 60 557 86 q 195 0 423 60 q 97 45 165 0 q 55 92 74 66 q 47 102 50 92 q 13 184 13 162 q 8 192 11 184 l 11 197 q 5 218 5 211 l 8 218 q 3 239 3 228 l 3 248 q 5 250 3 250 q 0 260 3 260 l 3 266 l 3 269 q 0 271 3 271 q 3 279 3 276 l 0 284 q 5 300 3 300 q 3 302 5 302 q 8 321 5 321 q 5 323 8 323 q 55 458 21 404 q 79 500 55 463 q 113 545 87 507 q 129 557 119 545 q 234 637 179 610 q 458 673 285 637 q 545 694 522 694 m 395 589 l 395 592 q 323 550 334 571 q 297 524 319 550 q 250 463 273 503 q 208 381 208 395 l 203 381 q 205 374 205 376 q 186 315 195 353 l 189 315 q 184 294 184 306 l 184 284 l 179 284 l 182 279 q 179 276 182 276 l 182 271 l 182 269 q 179 266 182 266 l 182 260 q 179 250 182 254 l 184 216 q 182 213 182 216 q 186 210 186 213 l 184 205 q 203 161 189 180 l 203 158 l 200 153 l 205 155 l 208 155 q 279 100 216 125 l 284 102 l 287 102 q 290 100 290 102 l 294 102 l 297 102 q 300 100 300 102 q 326 108 320 103 l 332 105 q 336 111 332 111 l 342 108 q 353 119 342 112 l 357 116 l 360 116 q 389 134 360 124 q 410 150 389 140 q 484 231 469 203 l 500 255 l 524 300 q 531 313 524 313 l 529 318 l 550 374 l 547 378 q 552 399 552 389 l 552 410 l 557 410 l 555 416 q 557 418 555 418 l 555 423 l 555 426 q 557 429 555 429 l 555 434 q 557 444 555 440 l 552 479 q 555 481 555 479 q 550 484 550 481 l 552 489 q 534 536 547 511 l 534 542 l 529 539 q 510 566 529 547 l 510 568 l 505 566 q 455 594 505 577 q 444 592 450 592 l 444 594 l 439 592 q 431 594 434 594 l 431 592 q 423 594 427 594 q 395 589 418 594 z "},"p":{"ha":865,"x_min":0,"x_max":801,"o":"m 612 696 q 688 659 667 681 q 746 604 714 649 q 753 593 751 604 q 788 512 788 534 q 793 504 791 512 l 791 498 q 796 477 796 485 l 793 477 q 798 456 798 468 l 798 448 q 796 446 798 446 q 801 435 798 435 l 798 430 l 798 427 q 801 425 798 425 q 798 417 798 420 l 801 412 q 796 396 798 396 q 798 393 796 393 q 793 375 797 375 q 796 372 793 372 q 746 237 780 292 q 722 195 746 232 q 688 151 713 189 q 672 138 682 151 q 572 61 624 87 q 261 1 490 61 q 219 16 219 7 l 214 16 q 243 -189 227 -164 q 290 -279 243 -213 q 0 -311 17 -311 l 0 -308 q 32 45 29 45 q 29 53 32 48 q 45 388 42 355 q 42 399 42 393 l 45 399 l 42 404 q 45 420 42 406 l 42 425 q 45 435 45 429 l 42 448 l 45 448 l 42 454 l 42 469 q 45 483 42 478 q 35 614 42 500 q 261 673 138 614 l 261 670 q 248 607 258 648 l 250 607 q 342 641 283 641 q 609 696 485 665 l 612 696 m 461 591 l 461 593 q 390 551 400 572 q 363 525 386 551 q 316 465 340 504 q 274 382 275 397 l 269 382 q 271 375 271 378 q 253 317 262 354 l 256 317 q 250 296 250 307 l 250 285 l 245 285 l 248 280 q 245 277 248 277 l 248 272 l 248 269 q 245 267 248 267 l 248 261 q 245 251 248 256 l 250 216 q 248 214 248 216 q 253 212 253 214 l 250 206 q 269 161 256 181 l 269 159 l 266 153 l 271 156 l 274 156 q 345 100 282 126 l 351 103 l 353 103 q 356 100 356 103 l 361 103 l 363 103 q 366 100 366 103 q 393 109 387 104 l 398 106 q 404 111 399 111 l 408 109 q 419 119 408 113 l 425 117 l 427 117 q 456 135 427 125 q 477 151 456 140 q 551 233 536 204 l 566 256 l 590 301 q 598 314 591 314 l 595 319 l 616 375 l 614 380 q 619 401 619 390 l 619 412 l 625 412 l 622 417 q 625 420 622 420 l 622 425 l 622 427 q 625 430 622 430 l 622 435 q 625 446 622 441 l 619 480 q 622 483 622 480 q 616 486 616 483 l 619 491 q 601 538 614 512 l 601 543 l 595 541 q 577 567 595 549 l 577 570 l 572 567 q 522 596 572 578 q 511 593 517 593 l 511 596 l 506 593 q 498 596 501 596 l 498 593 q 490 596 493 596 q 461 591 486 596 z "},"q":{"ha":866,"x_min":0,"x_max":795,"o":"m 766 695 q 725 410 725 483 q 717 201 717 268 q 738 -129 717 16 q 793 -241 758 -201 l 795 -247 q 507 -278 524 -278 l 507 -275 q 539 80 510 -224 q 434 52 504 52 q 191 -1 319 31 l 189 -1 q 113 36 134 14 q 55 91 86 46 q 47 101 49 91 q 13 182 13 160 q 8 190 10 182 l 10 195 q 5 216 5 209 l 8 216 q 3 237 3 226 l 3 245 q 5 248 3 248 q 0 258 3 258 l 3 264 l 3 266 q 0 269 3 269 q 3 277 3 274 l 0 282 q 5 298 3 298 q 3 300 5 300 q 8 319 5 319 q 5 321 8 321 q 55 454 21 401 q 79 496 55 460 q 113 541 87 503 q 128 554 119 541 q 228 630 176 604 q 536 690 309 630 q 583 674 558 689 q 662 616 627 656 q 751 690 678 650 q 766 695 756 695 m 448 588 l 413 588 l 406 583 l 400 585 q 395 580 400 580 l 390 583 q 379 572 390 579 l 374 575 l 372 575 q 342 557 372 566 q 321 541 342 551 q 248 460 263 488 l 233 436 l 210 392 q 201 378 210 378 l 204 374 l 183 319 l 186 313 q 180 292 180 304 l 180 282 l 175 282 l 178 277 q 175 274 178 274 l 178 269 l 178 266 q 175 264 178 264 l 178 258 q 175 248 178 252 l 180 214 q 178 211 178 214 q 183 209 183 211 l 180 203 q 199 156 186 182 l 199 151 l 204 153 q 222 127 204 146 l 222 125 l 228 127 q 277 98 228 116 q 288 101 282 101 l 288 98 l 293 101 q 301 98 298 98 l 301 101 q 309 98 306 98 q 338 104 313 98 l 338 101 q 408 143 398 122 q 434 170 412 143 q 481 229 458 191 q 524 311 523 297 l 528 311 q 526 319 526 315 q 544 376 536 338 l 542 376 q 547 397 547 385 l 547 408 l 552 408 l 549 412 q 552 415 549 415 l 549 420 l 549 423 q 552 426 549 426 l 549 431 q 552 441 549 437 l 547 475 q 549 478 549 475 q 544 481 544 478 l 547 486 q 528 530 542 511 l 528 533 l 531 538 l 526 536 l 524 536 q 452 591 515 565 l 448 588 z "},"r":{"ha":836,"x_min":0,"x_max":760,"o":"m 610 696 q 652 680 641 688 q 710 643 677 669 q 745 604 722 633 q 752 593 750 604 q 760 583 755 593 l 623 446 l 618 479 q 621 482 621 479 q 616 485 616 482 l 618 490 q 600 538 613 512 l 600 543 l 594 541 q 576 566 594 549 l 576 569 l 571 566 q 521 595 571 578 q 510 593 516 593 l 510 595 l 505 593 q 497 595 500 595 l 497 593 q 489 595 492 595 q 460 590 484 595 l 460 593 q 389 551 399 572 q 363 524 385 551 q 315 464 339 503 q 273 382 274 396 l 269 382 q 271 374 271 377 q 252 317 261 354 l 255 317 q 250 296 250 307 l 250 285 l 245 285 l 248 280 q 245 277 248 277 l 248 272 l 248 269 q 245 267 248 267 l 248 262 q 245 245 245 248 l 248 241 q 245 230 245 236 l 248 217 l 245 217 l 248 212 l 255 1 l 252 1 q 79 12 252 12 q 29 -7 39 -7 l 29 -4 q 71 283 71 210 q 79 482 79 431 q 58 614 79 552 q 0 667 43 640 l 3 667 l 290 680 l 290 677 q 279 627 284 640 q 366 643 279 637 q 608 696 477 664 l 610 696 z "},"s":{"ha":829,"x_min":0,"x_max":755,"o":"m 560 695 q 690 657 611 694 q 747 600 720 642 l 744 600 l 755 568 l 752 563 l 755 557 q 720 503 741 503 q 690 500 709 500 l 614 500 q 536 498 584 500 l 533 498 l 533 500 q 555 525 536 500 q 574 574 568 547 q 549 616 563 610 q 468 646 535 633 q 457 644 463 644 l 457 646 l 452 644 q 444 646 446 646 l 444 644 q 441 646 441 644 q 203 533 310 646 q 186 500 203 528 q 189 498 189 500 q 184 492 184 497 l 186 487 q 184 484 184 487 q 186 481 186 484 q 181 476 181 481 q 195 444 186 476 q 276 408 237 413 q 563 444 314 408 q 673 406 604 440 q 739 328 739 355 q 747 322 747 328 q 744 319 747 319 q 755 279 749 310 l 752 273 l 755 268 l 752 268 q 755 265 752 265 q 695 143 755 219 q 671 121 691 143 q 630 95 639 95 q 595 71 630 88 q 476 35 534 35 q 197 0 422 35 q 87 35 161 0 q 60 60 60 53 l 54 57 l 41 73 q 14 116 24 92 q 8 124 11 116 l 11 124 q 0 165 0 160 l 3 170 l 0 176 l 3 176 q 0 178 3 178 q 27 254 0 204 q 214 246 53 252 l 200 222 q 203 219 203 222 q 186 181 195 219 q 184 178 184 181 l 184 176 l 186 170 l 184 170 l 186 165 l 181 157 q 189 135 186 157 l 192 135 l 189 130 q 260 71 203 92 q 295 65 284 65 l 328 65 l 336 71 q 338 68 338 71 q 503 154 450 98 q 574 287 574 224 q 566 309 570 302 q 568 311 566 311 q 549 344 568 315 l 549 347 l 544 344 q 522 362 544 349 q 519 359 522 359 q 425 381 512 378 l 414 381 q 197 357 378 381 q 68 392 151 358 q 52 403 68 397 q 14 446 24 426 q 8 452 8 446 l 11 452 q 0 495 5 462 q 68 592 5 538 q 211 660 144 641 q 389 676 232 668 q 560 695 395 679 z "},"t":{"ha":844,"x_min":0,"x_max":771,"o":"m 354 972 l 354 970 q 312 759 328 901 q 309 716 312 737 q 312 659 312 694 l 626 659 l 626 656 l 576 534 l 319 534 q 322 458 319 525 q 319 431 319 434 l 322 426 q 319 423 322 423 l 322 410 l 322 402 q 325 296 322 363 q 341 256 328 296 q 338 254 338 256 q 351 228 344 254 q 378 180 362 202 q 389 159 389 164 q 439 96 410 127 q 505 48 471 58 q 515 43 505 46 l 520 45 q 549 40 539 40 l 549 43 l 555 40 q 563 43 560 43 l 563 40 l 568 43 l 570 43 q 573 40 573 43 q 621 69 621 58 l 626 66 l 644 93 q 642 96 642 93 l 644 96 l 650 93 l 647 98 l 647 101 q 666 146 661 121 l 666 154 l 669 154 q 666 156 669 156 l 671 188 l 673 188 q 771 14 681 170 q 655 -60 728 -43 q 365 -2 434 -2 q 288 53 339 10 l 240 106 q 216 140 240 112 q 153 304 162 231 q 151 312 151 309 l 153 312 l 151 317 q 153 518 153 446 l 153 534 l 0 534 l 0 536 q 53 659 37 618 l 151 659 l 151 727 q 130 917 151 771 q 354 972 189 933 z "},"u":{"ha":989,"x_min":0,"x_max":922,"o":"m 892 722 q 849 426 849 501 q 841 220 841 273 q 863 84 841 148 q 922 30 878 57 l 920 30 l 624 16 l 624 19 q 635 71 629 58 q 545 54 635 60 q 296 0 431 33 l 293 0 q 214 38 236 16 q 155 95 187 49 q 146 106 149 95 q 111 190 111 167 q 106 198 109 190 l 109 203 q 103 225 103 218 l 106 225 q 100 247 100 235 l 100 255 q 103 258 100 258 q 98 269 101 269 l 100 274 l 100 277 q 98 279 100 279 q 100 288 100 285 l 98 293 q 103 309 100 309 q 100 312 103 312 q 106 331 102 331 q 103 334 106 334 q 187 524 126 446 q 222 567 210 557 q 236 583 236 581 q 0 548 6 548 q 87 692 87 688 l 228 692 q 591 689 367 692 l 594 689 l 594 686 q 412 540 483 609 l 331 439 q 315 410 323 420 q 307 393 315 393 l 309 388 l 288 331 l 290 326 q 285 304 285 315 l 285 293 l 279 293 l 282 288 q 279 285 282 285 l 282 279 l 282 277 q 279 274 282 274 l 282 269 q 279 258 282 262 l 285 222 q 282 220 282 222 q 288 217 288 220 l 285 212 q 304 163 290 189 l 304 157 l 309 160 q 328 133 309 152 l 328 130 l 334 133 q 385 103 334 121 q 396 106 390 106 l 396 103 l 401 106 q 410 103 407 103 l 410 106 q 418 103 415 103 q 448 109 422 103 l 448 106 q 521 149 510 127 q 548 176 526 149 q 597 239 572 198 q 640 323 640 309 l 646 323 q 643 331 643 328 q 662 391 653 352 l 659 391 q 665 412 665 401 l 665 423 l 670 423 l 667 429 q 670 431 667 431 l 667 437 l 667 439 q 670 442 667 442 l 667 448 q 670 464 667 450 l 667 469 q 670 480 670 474 l 667 494 l 670 494 l 667 499 l 659 716 l 662 716 q 841 705 662 705 q 892 724 882 724 l 892 722 z "},"v":{"ha":947,"x_min":0,"x_max":879,"o":"m 87 692 l 228 692 q 591 689 367 692 l 594 689 l 594 686 q 423 551 480 605 q 366 477 385 507 q 331 420 345 458 q 320 396 326 420 l 315 393 l 317 388 l 296 331 l 298 326 q 293 304 293 315 l 293 293 l 288 293 l 290 288 q 288 285 290 285 l 290 279 l 290 277 q 288 274 290 274 l 290 269 q 288 258 290 262 l 293 222 q 290 220 290 222 q 296 217 296 220 l 293 212 q 347 127 310 149 q 396 103 361 115 l 401 106 l 404 106 q 407 103 407 106 l 412 106 q 415 103 415 106 q 445 111 439 106 l 450 109 q 456 114 451 114 l 461 111 q 475 122 461 117 l 480 119 q 513 138 480 130 q 543 160 513 144 q 586 203 582 203 q 597 214 586 208 q 621 252 612 235 q 646 296 633 264 q 656 320 651 296 l 662 323 l 659 328 l 681 385 l 684 385 l 684 388 l 678 388 l 678 393 q 686 412 686 393 l 686 423 l 692 423 l 689 429 q 692 431 689 431 l 689 437 l 689 439 q 692 442 689 442 l 689 448 q 692 458 689 454 l 686 494 q 689 496 689 494 q 684 499 684 496 q 686 507 686 505 l 662 548 q 559 583 621 583 l 559 589 q 822 692 759 670 q 873 575 833 690 q 879 507 879 534 l 879 439 q 876 429 879 433 q 879 426 876 426 q 873 407 877 407 q 876 404 873 404 q 871 385 874 385 q 873 382 871 382 q 819 239 857 298 q 811 228 819 231 q 762 160 789 193 q 613 60 663 60 q 301 0 543 60 l 298 0 q 198 46 268 0 q 155 95 174 68 q 146 106 149 95 q 111 190 111 167 q 106 198 109 190 l 109 203 q 103 225 103 218 l 106 225 q 100 247 100 235 l 100 255 q 103 258 100 258 q 98 269 101 269 l 100 274 l 100 277 q 98 279 100 279 q 100 288 100 285 l 98 293 q 103 309 100 309 q 100 312 103 312 q 106 331 102 331 q 103 334 106 334 q 187 524 126 446 q 222 567 210 557 q 236 583 236 581 q 0 548 6 548 q 87 692 87 688 z "},"w":{"ha":1468,"x_min":0,"x_max":1400,"o":"m 892 722 q 846 385 846 492 q 841 203 841 256 q 860 163 841 170 q 906 136 882 146 q 917 133 917 136 l 922 136 l 925 136 q 928 133 928 136 l 933 136 q 936 133 936 136 q 966 141 960 136 l 971 138 q 977 144 972 144 l 982 141 q 996 152 982 146 l 1001 149 q 1034 168 1001 159 q 1063 190 1034 174 q 1107 233 1103 233 q 1118 244 1107 237 q 1142 282 1133 265 q 1166 326 1154 294 q 1177 350 1172 326 l 1183 353 l 1180 358 l 1202 415 l 1204 415 l 1204 418 l 1199 418 l 1199 423 q 1207 442 1207 423 l 1207 453 l 1213 453 l 1210 458 q 1213 461 1210 461 l 1210 467 l 1210 469 q 1213 472 1210 472 l 1210 477 q 1213 488 1210 484 l 1207 524 q 1210 526 1210 524 q 1204 529 1204 526 q 1207 537 1207 534 l 1183 578 q 1080 613 1142 613 l 1080 618 q 1343 722 1280 700 q 1394 605 1354 720 q 1400 537 1400 564 l 1400 469 q 1397 458 1400 463 q 1400 456 1397 456 q 1394 437 1398 437 q 1397 434 1394 434 q 1392 415 1395 415 q 1394 412 1392 412 q 1340 269 1377 328 q 1332 258 1340 261 q 1283 190 1310 223 q 1134 90 1183 90 q 822 30 1064 90 l 819 30 q 738 62 797 30 q 681 117 701 90 q 621 62 676 117 q 315 3 418 36 q 293 0 300 0 q 214 38 236 16 q 155 95 187 49 q 146 106 149 95 q 111 190 111 167 q 106 198 109 190 l 109 203 q 103 225 103 218 l 106 225 q 100 247 100 235 l 100 255 q 103 258 100 258 q 98 269 101 269 l 100 274 l 100 277 q 98 279 100 279 q 100 288 100 285 l 98 293 q 103 309 100 309 q 100 312 103 312 q 106 331 102 331 q 103 334 106 334 q 187 524 126 446 q 222 567 210 557 q 236 583 236 581 q 0 548 6 548 q 87 692 87 688 l 228 692 q 591 689 367 692 l 594 689 l 594 686 q 412 540 483 609 l 331 439 q 315 410 323 420 q 307 393 315 393 l 309 388 l 288 331 l 290 326 q 285 304 285 315 l 285 293 l 279 293 l 282 288 q 279 285 282 285 l 282 279 l 282 277 q 279 274 282 274 l 282 269 q 279 258 282 262 l 285 222 q 282 220 282 222 q 288 217 288 220 l 285 212 q 304 163 290 189 l 304 157 l 309 160 q 328 133 309 152 l 328 130 l 334 133 q 385 103 334 121 q 396 106 390 106 l 396 103 l 401 106 q 410 103 407 103 l 410 106 q 418 103 415 103 q 448 109 422 103 l 448 106 q 521 149 510 127 q 548 176 526 149 q 597 239 572 198 q 640 323 640 309 l 646 323 q 643 331 643 328 q 662 391 653 352 l 659 391 q 665 412 665 401 l 665 423 l 670 423 l 667 429 q 670 431 667 431 l 667 437 l 667 439 q 670 442 667 442 l 667 448 q 670 464 667 450 l 667 469 q 670 480 670 474 l 667 494 l 670 494 l 667 499 l 659 716 l 662 716 q 841 705 662 705 q 892 724 882 724 l 892 722 z "},"x":{"ha":1129,"x_min":0,"x_max":1063,"o":"m 1063 703 l 1063 701 q 819 519 1053 690 q 607 343 802 500 q 688 140 669 167 q 797 80 732 80 q 800 77 797 77 q 913 113 859 88 l 913 110 q 876 37 913 92 q 775 1 850 1 q 691 -1 764 -1 l 656 -1 q 510 45 526 5 q 442 189 478 85 l 439 189 q 233 -23 233 -12 q 228 -34 228 -30 q 0 7 83 6 q 347 237 14 20 q 399 275 347 241 l 401 281 q 266 589 294 540 q 214 619 246 608 q 111 587 169 619 l 109 587 q 155 663 136 663 q 258 695 188 695 l 410 695 q 499 627 477 695 l 575 427 l 578 427 q 653 514 593 448 q 789 679 750 627 l 1063 703 z "},"y":{"ha":1175,"x_min":0,"x_max":1109,"o":"m 897 695 l 1109 695 q 1021 543 1061 623 q 811 91 934 405 q 707 -136 751 -90 q 665 -185 707 -141 q 640 -210 665 -189 q 499 -292 543 -292 q 204 -353 436 -292 q 102 -307 173 -353 q 58 -257 77 -284 q 50 -245 52 -257 q 14 -160 14 -184 q 8 -152 11 -160 l 11 -146 q 5 -124 5 -132 l 8 -124 q 3 -102 3 -114 l 3 -94 q 5 -91 3 -91 q 0 -80 3 -80 l 3 -75 l 3 -72 q 0 -69 3 -69 q 3 -61 3 -64 l 0 -56 q 5 -39 3 -39 q 3 -36 5 -36 q 8 -17 5 -17 q 5 -14 8 -14 q 85 174 31 100 l 304 190 q 220 58 254 128 q 212 47 220 47 q 215 39 215 41 q 196 -22 205 17 l 199 -22 q 193 -44 193 -33 l 193 -56 l 188 -56 l 191 -61 q 188 -64 191 -64 l 191 -69 l 191 -72 q 188 -75 191 -75 l 191 -80 q 188 -91 191 -86 l 193 -127 q 191 -130 191 -127 q 196 -133 196 -130 l 193 -138 q 212 -185 199 -164 l 212 -188 l 210 -193 l 215 -191 l 218 -191 q 292 -248 226 -222 l 298 -245 l 300 -245 q 304 -248 304 -245 l 309 -245 l 312 -245 q 315 -248 315 -245 q 342 -240 336 -245 l 348 -243 q 353 -237 349 -237 l 359 -240 q 370 -229 359 -236 l 375 -232 l 378 -232 q 408 -213 378 -223 q 441 -188 408 -208 q 455 -174 441 -183 q 467 -163 455 -170 l 499 -124 l 524 -85 q 568 19 547 -47 l 571 19 q 563 36 563 32 l 400 0 q 411 130 411 104 l 411 155 q 414 284 411 212 q 372 477 403 403 q 292 599 322 599 q 268 607 273 607 q 165 574 221 607 l 163 574 l 163 576 q 224 659 197 659 q 331 684 248 684 l 463 684 q 549 640 524 684 q 632 386 632 439 q 635 320 635 347 q 632 184 632 205 l 632 182 l 635 182 q 723 378 635 201 q 897 695 799 544 z "},"z":{"ha":1114,"x_min":0,"x_max":1046,"o":"m 1046 753 l 1046 749 q 648 340 648 353 q 454 104 454 109 l 581 104 q 916 146 916 134 q 972 161 920 146 l 972 157 q 813 -119 820 -115 q 601 -31 650 -31 q 277 -1 601 -14 q 227 1 267 -1 q 3 -31 96 1 l 0 -31 l 0 -28 q 212 172 88 49 q 566 567 334 296 l 563 567 q 127 511 333 567 l 112 511 l 218 694 q 539 691 439 691 q 1046 753 800 691 z "},"{":{"ha":688,"x_min":163,"x_max":600,"o":"m 163 473 q 314 522 279 477 q 349 612 349 566 l 349 929 q 401 1025 349 979 q 526 1071 453 1071 l 600 1071 l 600 1037 l 538 1037 q 466 1014 497 1037 q 434 952 435 991 l 434 613 q 393 506 434 557 q 296 454 352 454 l 296 452 q 393 401 352 452 q 435 294 435 350 l 434 -45 q 466 -107 435 -85 q 538 -130 497 -130 l 600 -130 l 600 -164 l 526 -164 q 401 -118 453 -164 q 349 -22 349 -73 l 349 295 q 314 385 349 340 q 163 433 279 429 l 163 473 z "},"|":{"ha":688,"x_min":290,"x_max":398,"o":"m 290 1069 l 398 1069 l 398 -283 l 290 -283 l 290 1069 z "},"}":{"ha":688,"x_min":88,"x_max":525,"o":"m 525 433 q 374 385 408 429 q 339 295 339 340 l 339 -22 q 287 -118 338 -73 q 161 -164 235 -164 l 88 -164 l 88 -130 l 149 -130 q 222 -107 191 -130 q 254 -45 253 -85 l 253 294 q 294 401 253 350 q 392 452 336 452 l 392 454 q 295 506 336 454 q 254 613 254 557 l 254 952 q 222 1014 253 991 q 149 1037 191 1037 l 88 1037 l 88 1071 l 161 1071 q 287 1025 235 1071 q 339 929 339 979 l 339 612 q 374 522 339 566 q 525 473 408 477 l 525 433 z "},"~":{"ha":688,"x_min":64,"x_max":626,"o":"m 626 595 l 626 490 q 543 424 583 441 q 465 406 503 406 q 344 439 424 406 q 224 472 264 472 q 152 453 190 472 q 64 377 113 434 l 64 483 q 147 550 107 532 q 224 568 187 568 q 348 534 268 568 q 465 500 427 500 q 538 519 500 500 q 626 595 576 538 z "},"":{"ha":688,"x_min":52,"x_max":635,"o":"m 507 913 q 399 935 458 935 l 397 935 q 269 866 330 935 q 212 703 212 803 q 212 682 212 692 q 248 497 212 591 l 492 497 l 492 456 l 266 456 q 287 416 275 436 q 311 322 311 373 q 201 68 311 213 l 473 68 q 602 157 562 68 l 635 157 l 565 0 l 77 0 l 78 34 q 205 317 205 195 q 182 414 205 370 q 161 456 170 436 l 52 456 l 52 497 l 143 497 q 104 669 104 594 q 188 904 104 822 q 395 986 271 986 l 398 986 q 524 977 449 986 q 599 954 599 967 l 599 844 l 559 844 q 507 913 556 886 z "},"":{"ha":688,"x_min":83,"x_max":604,"o":"m 237 380 q 304 341 265 353 q 344 336 324 336 q 383 341 363 336 q 450 380 422 353 q 489 447 477 408 q 495 486 495 467 q 489 526 495 506 q 450 593 477 565 q 382 631 422 620 q 343 637 363 637 q 304 631 323 637 q 237 593 264 619 q 199 526 211 566 q 193 486 193 506 q 199 448 193 467 q 237 380 210 408 m 163 612 l 83 692 l 137 747 l 217 667 q 284 699 247 688 q 345 708 314 708 q 401 700 372 708 q 470 667 439 688 l 550 747 l 604 692 l 525 613 q 557 544 546 582 q 566 486 566 515 q 557 429 566 458 q 525 359 546 391 l 604 280 l 550 225 l 470 305 q 401 273 439 283 q 344 264 373 264 q 286 273 315 264 q 217 305 248 283 l 137 225 l 83 280 l 163 359 q 130 429 141 391 q 122 486 122 458 q 131 545 122 516 q 163 612 142 583 z "},"":{"ha":856,"x_min":5,"x_max":864,"o":"m 371 153 l 370 317 q 369 340 370 330 q 366 362 368 351 l 37 363 q 23 367 28 363 q 18 380 18 372 q 23 393 18 389 q 37 397 27 397 l 354 397 l 272 514 l 39 514 q 23 518 27 514 q 18 530 18 522 q 22 544 18 540 q 37 547 26 547 l 245 547 q 172 652 216 586 q 18 786 83 786 q 9 790 14 786 q 5 798 5 793 q 13 816 5 810 q 35 822 20 822 q 118 817 53 822 q 229 811 183 811 l 289 811 q 317 807 311 811 q 322 789 322 802 q 312 779 322 783 q 286 775 302 775 q 274 777 282 775 q 261 778 265 778 q 236 771 245 778 q 227 754 227 765 q 238 719 227 742 q 269 667 249 696 l 376 517 q 399 481 385 504 q 447 433 427 433 q 458 437 453 433 q 468 447 463 440 l 656 715 q 665 733 661 724 q 668 750 668 743 q 661 768 668 762 q 636 778 654 774 q 608 781 626 779 q 576 798 576 783 q 582 813 576 808 q 599 818 587 818 q 609 817 601 818 q 682 812 647 812 l 777 812 q 821 813 797 812 q 846 814 844 814 q 858 811 853 814 q 864 803 863 808 q 838 780 864 784 q 820 777 826 778 q 720 697 777 766 q 712 687 715 691 l 597 547 l 817 547 q 833 543 827 547 q 839 532 839 539 q 835 518 839 522 q 819 514 831 514 l 571 514 q 506 438 540 475 q 470 397 471 400 l 817 397 q 834 394 829 397 q 839 382 839 390 q 834 368 839 372 q 819 363 829 363 l 460 363 q 459 342 460 355 q 458 322 458 329 l 460 176 q 464 75 460 99 q 477 45 467 50 q 550 32 498 33 q 603 11 603 31 q 596 -3 603 3 q 579 -8 589 -8 q 555 -5 578 -8 q 511 -3 532 -3 q 370 -5 450 -3 q 273 -8 290 -8 q 246 -5 252 -8 q 240 5 240 -3 q 245 18 240 14 q 271 26 251 22 q 288 30 277 28 q 350 52 338 41 q 366 83 361 60 q 371 153 371 106 z "},"":{"ha":688,"x_min":290,"x_max":398,"o":"m 290 252 l 398 252 l 398 -283 l 290 -283 l 290 252 m 290 1070 l 398 1070 l 398 535 l 290 535 l 290 1070 z "},"":{"ha":688,"x_min":115,"x_max":572,"o":"m 370 218 q 435 254 408 229 q 485 366 485 298 q 484 373 485 370 l 483 373 q 480 391 482 382 q 404 477 465 433 q 318 497 363 497 q 233 467 265 497 q 201 387 201 437 q 370 218 201 304 m 316 -235 q 441 -188 393 -231 q 490 -76 490 -144 q 276 111 490 9 q 157 204 193 155 q 121 324 121 254 q 182 485 121 425 q 297 541 227 529 l 270 553 q 151 646 186 597 q 115 766 115 696 q 176 927 115 867 q 322 985 231 981 q 334 986 328 986 l 336 986 q 446 975 380 986 q 512 947 512 964 l 512 815 l 477 815 q 423 905 474 870 q 322 939 376 937 l 312 939 q 227 909 259 939 q 195 829 195 879 q 390 647 195 740 q 529 550 491 602 q 566 422 566 498 q 498 231 566 307 q 431 188 466 205 q 535 108 504 150 q 572 -19 572 56 q 504 -211 572 -135 q 316 -282 420 -280 l 316 -281 q 307 -282 312 -282 l 305 -282 q 195 -271 260 -282 q 129 -243 129 -260 l 129 -111 l 163 -111 q 218 -201 167 -166 q 316 -235 264 -231 z "},"":{"ha":694,"x_min":142,"x_max":536,"o":"m 151 874 l 199 923 q 216 931 208 931 q 235 922 224 931 l 281 872 q 288 855 288 863 q 280 837 288 846 l 233 786 q 216 774 222 774 q 199 783 207 774 l 148 841 q 142 857 142 849 q 151 874 142 865 m 399 874 l 447 923 q 464 931 456 931 q 482 922 471 931 l 529 872 q 536 855 536 863 q 528 838 536 846 l 481 786 q 464 774 469 774 q 447 783 454 774 l 395 842 q 389 857 389 849 q 399 874 389 865 z "},"":{"ha":1135,"x_min":68,"x_max":1067,"o":"m 570 987 q 760 949 668 987 q 922 840 851 911 q 1029 679 991 772 q 1067 487 1067 586 q 1029 296 1067 387 q 919 133 991 204 q 757 25 848 62 q 565 -12 666 -12 q 376 25 466 -12 q 215 134 287 63 q 105 295 143 205 q 68 487 68 386 q 105 679 68 587 q 214 840 143 770 q 375 949 283 911 q 570 987 468 987 m 242 812 q 143 663 178 747 q 109 487 109 579 q 143 311 109 394 q 243 163 178 229 q 392 63 310 98 q 566 28 474 28 q 742 63 659 28 q 890 161 825 97 q 991 312 956 228 q 1027 487 1027 395 q 991 663 1027 578 q 893 812 956 748 q 744 912 828 877 q 569 947 660 947 q 391 912 476 947 q 242 812 307 877 m 587 151 q 408 197 490 151 q 281 323 325 243 q 238 488 238 402 q 282 653 238 573 q 410 778 327 733 q 582 823 492 823 q 633 819 608 823 q 684 805 658 814 q 690 804 688 804 q 708 825 703 804 l 736 825 l 785 690 l 755 690 q 667 774 720 754 q 567 792 618 792 l 557 792 q 444 744 498 787 q 361 624 389 701 q 339 499 339 563 q 340 465 339 482 q 388 313 348 383 q 489 210 427 243 q 602 182 538 183 q 733 220 686 182 q 781 305 781 258 l 817 305 l 817 237 q 751 179 817 206 q 587 151 686 151 z "},"":{"ha":640,"x_min":118,"x_max":572,"o":"m 118 325 l 350 530 l 359 530 l 359 505 l 220 325 l 359 144 l 359 119 l 350 119 l 118 325 m 330 325 l 562 530 l 572 530 l 572 505 l 433 325 l 572 144 l 572 119 l 562 119 l 330 325 z "},"":{"ha":688,"x_min":59,"x_max":629,"o":"m 59 520 l 629 520 l 629 187 l 628 186 l 562 186 l 562 452 l 59 452 l 59 520 z "},"":{"ha":1135,"x_min":68,"x_max":1067,"o":"m 509 745 l 509 492 l 511 486 q 549 431 527 448 q 587 416 569 416 l 591 416 q 633 443 612 419 q 665 509 654 466 q 673 578 673 543 q 673 597 673 587 q 654 681 670 642 q 615 733 637 720 q 572 745 593 745 l 509 745 m 667 391 l 723 312 q 825 216 791 216 l 848 216 l 848 182 l 613 182 l 613 216 l 644 216 q 664 231 664 216 q 617 309 664 251 l 566 378 q 509 406 538 378 l 509 298 q 534 216 509 216 l 570 216 l 570 182 l 355 182 l 355 216 l 385 216 q 410 298 410 216 l 410 663 q 385 745 410 745 l 355 745 l 355 793 l 597 793 q 682 764 640 792 q 744 687 722 736 q 766 584 766 637 q 745 482 766 531 q 667 391 723 433 m 570 987 q 760 949 668 987 q 922 840 851 911 q 1029 679 991 772 q 1067 487 1067 586 q 1029 296 1067 387 q 919 133 991 204 q 757 25 848 62 q 565 -12 666 -12 q 376 25 466 -12 q 215 134 287 63 q 105 295 143 205 q 68 487 68 386 q 105 679 68 587 q 214 840 143 770 q 375 949 283 911 q 570 987 468 987 m 242 812 q 143 663 178 747 q 109 487 109 579 q 143 311 109 394 q 243 163 178 229 q 392 63 310 98 q 566 28 474 28 q 742 63 659 28 q 890 161 825 97 q 991 312 956 228 q 1027 487 1027 395 q 991 663 1027 578 q 893 812 956 748 q 744 912 828 877 q 569 947 660 947 q 391 912 476 947 q 242 812 307 877 z "},"":{"ha":694,"x_min":214,"x_max":527,"o":"m 412 932 q 449 964 435 956 q 477 972 463 972 q 513 959 499 972 q 527 924 527 945 q 516 896 527 909 q 485 869 506 882 l 261 731 l 214 731 l 412 932 z "},"":{"ha":694,"x_min":63,"x_max":630,"o":"m 630 973 l 630 926 l 544 926 l 544 0 l 488 0 l 488 926 l 376 926 l 376 0 l 319 0 l 319 500 q 132 570 201 506 q 63 736 63 634 q 136 908 63 843 q 330 973 209 973 l 630 973 z "},"":{"ha":345,"x_min":87,"x_max":257,"o":"m 98 502 l 154 559 q 174 568 164 568 q 195 557 182 568 l 249 499 q 257 479 257 488 q 248 458 257 469 l 193 399 q 174 385 180 385 q 154 395 163 385 l 94 463 q 87 481 87 472 q 98 502 87 491 z "},"":{"ha":694,"x_min":244,"x_max":521,"o":"m 244 -197 q 347 -232 302 -232 q 411 -217 392 -232 q 431 -172 431 -203 q 397 -129 431 -142 q 328 -118 370 -118 q 305 -119 317 -118 l 338 0 l 380 0 l 355 -71 q 397 -67 377 -68 q 488 -95 456 -67 q 521 -172 521 -122 q 481 -253 521 -223 q 372 -283 441 -283 q 244 -262 298 -283 l 244 -197 z "},"":{"ha":640,"x_min":68,"x_max":522,"o":"m 78 119 l 68 119 l 68 144 l 208 325 l 68 505 l 68 530 l 78 530 l 310 325 l 78 119 m 290 119 l 281 119 l 281 144 l 420 325 l 281 505 l 281 530 l 290 530 l 522 325 l 290 119 z "},"":{"ha":688,"x_min":109,"x_max":578,"o":"m 344 419 l 176 252 l 109 319 l 277 486 l 109 654 l 176 721 l 344 553 l 512 721 l 578 654 l 411 486 l 578 319 l 511 252 l 344 419 z "},"":{"ha":688,"x_min":59,"x_max":629,"o":"m 59 439 l 59 534 l 628 534 l 629 533 l 629 439 l 59 439 m 270 277 l 326 334 q 345 343 336 343 q 366 332 354 343 l 420 274 q 429 254 429 263 q 419 233 429 244 l 365 174 q 345 160 351 160 q 326 170 334 160 l 266 238 q 259 256 259 247 q 270 277 259 266 m 270 747 l 326 804 q 345 813 336 813 q 366 802 354 813 l 420 744 q 429 724 429 733 q 419 703 429 714 l 365 644 q 345 630 351 630 q 326 640 334 630 l 266 708 q 259 726 259 717 q 270 747 259 736 z "},"":{"ha":349,"x_min":13,"x_max":321,"o":"m 222 151 q 290 34 222 34 l 321 34 l 321 0 l 22 0 l 22 34 l 53 34 q 121 151 121 34 l 121 444 q 45 496 121 496 l 13 496 l 13 526 q 190 650 163 573 l 222 650 l 222 151 z "},"":{"ha":694,"x_min":150,"x_max":545,"o":"m 150 732 l 307 972 l 387 972 l 545 732 l 505 732 l 347 878 l 189 732 l 150 732 z "},"":{"ha":694,"x_min":150,"x_max":545,"o":"m 150 972 l 189 972 l 347 827 l 505 972 l 545 972 l 387 731 l 307 731 l 150 972 z "},"":{"ha":694,"x_min":172,"x_max":522,"o":"m 172 810 l 172 895 l 522 895 l 522 810 l 172 810 z "},"":{"ha":694,"x_min":149,"x_max":545,"o":"m 149 915 l 183 915 q 234 842 195 865 q 347 819 273 819 q 460 842 421 819 q 510 915 498 865 l 545 915 q 481 778 531 825 q 347 732 431 732 q 214 779 264 732 q 149 915 163 825 z "},"":{"ha":694,"x_min":277,"x_max":422,"o":"m 286 874 l 333 923 q 342 929 337 927 q 351 931 347 931 q 360 929 355 931 q 368 923 364 927 l 416 871 q 421 865 420 869 q 422 855 422 861 q 420 845 422 849 q 415 837 419 841 l 367 785 q 356 776 359 778 q 351 774 353 774 q 340 776 345 774 q 333 782 336 778 l 282 841 q 278 847 279 844 q 277 857 277 851 q 279 865 277 861 q 286 874 281 869 z "},"":{"ha":694,"x_min":227,"x_max":468,"o":"m 279 852 q 298 804 279 824 q 347 785 318 785 q 395 804 375 785 q 414 852 414 824 q 394 900 414 880 q 347 920 374 920 q 299 900 319 920 q 279 852 279 880 m 227 852 q 262 938 227 903 q 347 972 296 972 q 433 938 398 972 q 468 852 468 903 q 433 767 468 802 q 347 732 398 732 q 262 767 296 732 q 227 852 227 802 z "},"":{"ha":694,"x_min":250,"x_max":500,"o":"m 434 0 q 359 -81 386 -42 q 332 -157 332 -120 q 351 -208 332 -189 q 400 -227 369 -227 q 447 -217 427 -227 q 481 -184 467 -206 l 500 -195 q 438 -260 475 -237 q 357 -283 401 -283 q 280 -259 310 -283 q 250 -198 250 -235 q 291 -92 250 -146 q 401 0 332 -37 l 434 0 z "},"":{"ha":694,"x_min":159,"x_max":548,"o":"m 548 937 q 502 833 534 867 q 416 798 469 798 l 413 798 q 336 814 379 798 q 259 830 292 830 q 218 816 233 830 q 195 768 203 802 l 159 768 q 205 875 172 840 q 292 911 238 911 q 369 895 323 910 q 445 879 412 879 l 448 879 q 487 892 472 879 q 511 937 502 906 l 548 937 z "},"":{"ha":694,"x_min":147,"x_max":547,"o":"m 147 732 l 245 917 q 276 960 261 947 q 307 972 290 972 q 340 959 326 972 q 353 927 353 945 q 346 903 353 916 q 326 876 339 890 l 186 732 l 147 732 m 340 732 l 438 917 q 469 960 454 947 q 500 972 484 972 q 533 959 519 972 q 547 927 547 945 q 539 903 547 916 q 519 876 532 890 l 380 732 l 340 732 z "},"":{"ha":751,"x_min":38,"x_max":713,"o":"m 38 284 l 38 366 l 713 366 l 713 284 l 38 284 z "},"":{"ha":1389,"x_min":0,"x_max":1389,"o":"m 0 284 l 0 366 l 1389 366 l 1389 284 l 0 284 z "},"":{"ha":378,"x_min":126,"x_max":297,"o":"m 216 689 q 156 733 186 689 q 126 836 126 778 q 174 990 126 910 q 269 1069 222 1069 l 269 1040 q 210 911 219 1011 q 297 802 210 831 l 297 774 l 216 689 z "},"":{"ha":378,"x_min":81,"x_max":252,"o":"m 161 1069 q 221 1025 191 1069 q 252 922 252 981 q 203 769 252 848 q 109 689 155 689 l 109 718 q 168 847 159 747 q 81 956 168 928 l 81 985 l 161 1069 z "},"":{"ha":378,"x_min":81,"x_max":252,"o":"m 161 191 q 221 146 191 191 q 252 43 252 102 q 203 -110 252 -31 q 109 -190 155 -190 l 109 -161 q 168 -32 159 -132 q 81 77 168 49 l 81 106 l 161 191 z "},"":{"ha":617,"x_min":126,"x_max":536,"o":"m 216 689 q 156 733 186 689 q 126 836 126 778 q 174 990 126 910 q 269 1069 222 1069 l 269 1040 q 210 911 219 1011 q 297 802 210 831 l 297 774 l 216 689 m 456 689 q 396 733 426 689 q 366 836 366 778 q 414 990 366 910 q 508 1069 462 1069 l 508 1040 q 449 911 458 1011 q 536 802 449 831 l 536 774 l 456 689 z "},"":{"ha":617,"x_min":81,"x_max":491,"o":"m 161 1069 q 221 1025 191 1069 q 252 922 252 981 q 203 769 252 848 q 109 689 155 689 l 109 718 q 168 847 159 747 q 81 956 168 928 l 81 985 l 161 1069 m 401 1069 q 461 1025 431 1069 q 491 922 491 981 q 443 769 491 848 q 349 689 395 689 l 349 718 q 408 847 398 747 q 320 956 408 928 l 320 985 l 401 1069 z "},"":{"ha":617,"x_min":81,"x_max":491,"o":"m 161 191 q 221 146 191 191 q 252 43 252 102 q 203 -110 252 -31 q 109 -190 155 -190 l 109 -161 q 168 -32 159 -132 q 81 77 168 49 l 81 106 l 161 191 m 401 191 q 461 146 431 191 q 491 43 491 102 q 443 -110 491 -31 q 349 -190 395 -190 l 349 -161 q 408 -32 398 -132 q 320 77 408 49 l 320 106 l 401 191 z "},"":{"ha":688,"x_min":48,"x_max":640,"o":"m 330 693 q 293 814 324 759 q 254 901 254 882 q 279 955 254 935 q 344 975 303 975 q 408 956 382 975 q 433 907 433 937 q 396 814 433 886 q 359 693 365 757 q 479 730 424 699 q 566 768 547 768 q 620 744 600 768 q 640 679 640 720 q 622 615 640 640 q 572 589 603 589 q 480 627 551 589 q 359 665 422 658 q 433 477 364 546 q 357 -183 361 165 l 332 -183 q 254 477 328 165 q 330 665 323 546 q 209 628 264 659 q 121 589 140 589 q 68 614 88 589 q 48 679 48 638 q 67 743 48 718 q 115 768 85 768 q 208 730 137 768 q 330 693 266 699 z "},"":{"ha":688,"x_min":47,"x_max":640,"o":"m 358 126 q 479 165 422 134 q 572 202 550 202 q 621 177 602 202 q 640 113 640 151 q 619 47 640 72 q 566 23 599 23 q 478 62 547 23 q 358 98 423 93 q 395 -23 364 35 q 433 -116 433 -94 q 407 -164 433 -146 q 343 -183 382 -183 q 278 -163 302 -183 q 254 -110 254 -143 q 292 -22 254 -91 q 329 98 323 33 q 208 61 265 92 q 115 23 136 23 q 66 48 85 23 q 47 113 47 74 q 67 178 47 153 q 121 202 87 202 q 208 163 140 202 q 329 126 264 133 q 254 396 323 279 q 329 665 323 512 q 208 628 264 659 q 121 589 140 589 q 67 614 87 589 q 47 679 47 638 q 66 743 47 718 q 115 768 85 768 q 208 730 136 768 q 329 693 265 699 q 292 814 323 759 q 254 901 254 882 q 278 955 254 935 q 343 975 302 975 q 407 956 382 975 q 433 907 433 937 q 395 814 433 886 q 358 693 364 757 q 478 730 423 699 q 566 768 547 768 q 619 744 599 768 q 640 679 640 720 q 621 615 640 640 q 572 589 602 589 q 479 627 550 589 q 358 665 422 658 q 433 396 363 512 q 358 126 363 279 z "},"":{"ha":694,"x_min":146,"x_max":548,"o":"m 146 487 q 205 629 146 570 q 348 687 264 687 q 489 628 431 687 q 548 487 548 570 q 489 345 548 404 q 347 286 429 286 q 205 345 263 286 q 146 487 146 404 z "},"":{"ha":1389,"x_min":87,"x_max":1183,"o":"m 98 113 l 154 170 q 174 180 164 180 q 195 169 182 180 l 249 111 q 257 91 257 100 q 248 70 257 81 l 193 10 q 174 -3 180 -3 q 154 6 163 -3 l 94 75 q 87 92 87 83 q 98 113 87 102 m 562 113 l 617 170 q 637 180 627 180 q 658 169 646 180 l 712 111 q 720 91 720 100 q 711 70 720 81 l 656 10 q 637 -3 643 -3 q 617 6 626 -3 l 557 75 q 551 92 551 83 q 562 113 551 102 m 1025 113 l 1080 170 q 1100 180 1090 180 q 1121 169 1109 180 l 1175 111 q 1183 91 1183 100 q 1174 70 1183 81 l 1120 10 q 1100 -3 1106 -3 q 1080 6 1089 -3 l 1021 75 q 1014 92 1014 83 q 1025 113 1014 102 z "},"":{"ha":428,"x_min":118,"x_max":359,"o":"m 118 325 l 350 530 l 359 530 l 359 505 l 220 325 l 359 144 l 359 119 l 350 119 l 118 325 z "},"":{"ha":428,"x_min":68,"x_max":310,"o":"m 78 119 l 68 119 l 68 144 l 208 325 l 68 505 l 68 530 l 78 530 l 310 325 l 78 119 z "},"":{"ha":232,"x_min":-232,"x_max":463,"o":"m -232 -20 l 406 971 l 463 971 l -174 -20 l -232 -20 z "},"":{"ha":688,"x_min":33,"x_max":723,"o":"m 168 242 l 36 242 l 36 283 l 168 283 l 168 779 q 98 939 168 939 l 33 939 l 33 972 l 653 972 l 723 816 l 690 816 q 561 939 650 939 l 347 939 q 277 779 277 939 l 277 541 l 522 541 q 590 583 590 541 l 590 623 l 624 623 l 624 391 l 590 391 l 590 431 q 522 473 590 473 l 277 473 l 277 283 l 409 283 l 409 242 l 277 242 l 277 193 q 347 34 277 34 l 412 34 l 412 0 l 33 0 l 33 34 l 98 34 q 168 193 168 34 l 168 242 z "},"":{"ha":688,"x_min":52,"x_max":635,"o":"m 507 913 q 399 935 458 935 l 397 935 q 269 866 330 935 q 212 703 212 803 q 212 682 212 692 q 235 538 212 610 l 492 538 l 492 497 l 248 497 q 266 456 256 477 l 505 456 l 505 416 l 287 416 q 311 322 311 373 q 201 68 311 213 l 473 68 q 602 157 562 68 l 635 157 l 565 0 l 77 0 l 78 34 q 205 317 205 195 q 182 414 205 370 l 180 416 l 64 416 l 64 456 l 161 456 q 143 497 151 477 l 52 497 l 52 538 l 128 538 q 104 669 104 610 q 188 904 104 822 q 398 986 271 986 q 524 977 449 986 q 599 954 599 967 l 599 844 l 559 844 q 507 913 556 886 z "},"":{"ha":1375,"x_min":33,"x_max":1334,"o":"m 277 939 l 277 490 q 282 478 279 484 q 355 374 310 409 q 434 345 394 345 q 447 345 441 345 q 533 396 493 351 q 592 516 573 441 q 607 637 607 575 q 606 669 607 654 q 573 818 602 748 q 499 916 544 887 q 423 939 461 939 q 409 939 416 939 l 277 939 m 1015 616 l 893 616 l 893 151 q 916 71 893 96 q 971 45 935 50 l 923 176 l 956 176 q 1034 58 994 88 q 1120 28 1072 28 l 1124 28 q 1227 64 1187 28 q 1267 156 1267 100 q 1091 309 1267 225 q 994 385 1023 345 q 964 484 964 426 q 1014 615 964 566 l 1015 616 m 705 617 q 672 486 700 549 q 576 365 638 408 q 448 322 515 322 q 318 366 380 322 q 277 400 296 380 l 277 193 q 347 34 277 34 l 412 34 l 412 0 l 33 0 l 33 34 l 98 34 q 168 193 168 34 l 168 779 q 98 939 168 939 l 33 939 l 33 972 l 452 972 q 574 930 514 971 q 671 810 636 888 q 706 650 705 734 l 713 650 q 859 890 859 650 l 893 890 l 893 650 l 1069 650 q 1143 663 1097 663 l 1145 663 q 1235 654 1181 663 q 1289 631 1289 645 l 1289 524 l 1261 524 q 1216 597 1258 568 q 1126 625 1175 625 q 1056 601 1082 625 q 1030 535 1030 576 q 1190 386 1030 462 q 1303 306 1272 349 q 1334 202 1334 264 q 1278 45 1334 107 q 1123 -13 1208 -12 q 1052 -5 1084 -13 q 1014 -1 1033 -1 q 989 -3 1002 -1 q 949 -7 970 -7 q 832 32 865 -7 q 793 151 798 71 l 792 151 l 792 617 l 705 617 z "},"":{"ha":688,"x_min":-30,"x_max":724,"o":"m 95 252 q 43 443 53 344 l -30 443 l -18 484 l 41 484 l 41 503 q 41 524 41 514 l -7 524 l 5 565 l 44 565 q 96 755 54 663 q 249 941 151 876 q 451 1006 347 1006 q 510 1001 480 1006 q 566 981 537 994 q 576 977 571 977 q 600 1008 590 977 l 627 1008 l 684 817 l 657 817 q 564 937 624 907 q 509 959 534 952 l 509 961 q 440 972 475 972 q 417 970 429 972 q 264 893 336 962 q 157 708 192 825 q 131 565 136 637 l 610 565 l 598 524 l 129 524 q 130 484 129 504 l 587 484 l 576 443 l 134 443 q 190 241 145 336 q 321 81 240 134 q 467 34 390 35 q 641 96 593 36 q 691 221 691 157 l 724 221 l 724 124 q 648 38 724 77 q 467 0 577 1 q 247 66 345 0 q 95 252 149 133 z "},"":{"ha":688,"x_min":52,"x_max":635,"o":"m 157 364 q 161 311 157 336 q 202 155 170 228 q 283 43 235 81 q 370 7 326 7 q 378 7 374 7 q 465 55 426 11 q 519 177 504 100 q 530 278 530 227 q 527 336 530 307 q 485 493 517 418 q 404 605 452 567 q 317 639 359 639 l 309 639 q 224 592 263 635 q 168 471 184 548 q 157 364 157 414 m 635 323 q 597 153 635 234 q 489 28 559 73 q 344 -17 420 -17 q 198 28 268 -17 q 91 153 129 73 q 52 323 52 234 q 92 494 52 412 q 201 619 131 575 q 344 663 271 663 q 488 619 418 663 q 524 591 507 607 q 366 847 467 751 q 144 952 264 943 l 144 989 q 494 796 352 989 q 635 323 635 603 z "},"":{"ha":733,"x_min":4,"x_max":728,"o":"m 349 810 l 73 83 l 616 83 l 349 810 m 371 972 l 728 0 l 4 0 l 371 972 z "},"":{"ha":1027,"x_min":33,"x_max":995,"o":"m 347 939 q 277 779 277 939 l 277 -90 q 347 -249 277 -249 l 412 -249 l 412 -283 l 33 -283 l 33 -249 l 98 -249 q 168 -90 168 -249 l 168 779 q 98 939 168 939 l 33 939 l 33 972 l 995 972 l 995 939 l 929 939 q 860 779 860 939 l 860 -90 q 929 -249 860 -249 l 995 -249 l 995 -283 l 615 -283 l 615 -249 l 680 -249 q 750 -90 750 -249 l 750 779 q 680 939 750 939 l 347 939 z "},"":{"ha":818,"x_min":81,"x_max":776,"o":"m 718 372 l 184 -248 l 614 -248 q 743 -125 703 -248 l 776 -125 l 706 -282 l 81 -282 l 81 -248 q 153 -212 123 -248 l 603 317 l 153 900 q 81 939 123 939 l 81 972 l 706 972 l 776 815 l 743 815 q 614 939 703 939 l 286 939 l 718 372 z "},"":{"ha":688,"x_min":59,"x_max":629,"o":"m 59 439 l 59 534 l 628 534 l 629 533 l 629 439 l 59 439 z "},"":{"ha":688,"x_min":12,"x_max":715,"o":"m 123 0 l 12 243 l 62 267 l 119 142 l 613 1139 l 715 1139 l 715 1098 l 666 1098 l 123 0 z "},"":{"ha":688,"x_min":45,"x_max":645,"o":"m 298 512 q 248 602 288 582 q 191 617 216 617 q 175 616 182 617 q 112 586 142 609 q 68 528 83 562 q 54 467 54 497 l 54 462 q 73 401 56 429 q 121 362 90 374 q 163 355 141 355 q 185 357 174 355 q 247 386 217 363 q 298 512 276 409 m 316 466 q 380 362 324 401 q 463 330 427 330 q 477 331 471 330 q 557 366 519 339 q 614 435 595 393 q 632 508 632 471 l 632 515 q 608 589 631 556 q 546 635 585 622 q 494 644 521 644 q 465 642 479 644 q 378 600 419 635 q 316 466 338 564 m 305 561 q 319 608 311 585 q 384 701 342 667 q 471 734 425 734 q 557 701 516 734 q 622 610 599 669 q 645 486 645 551 q 622 363 645 422 q 557 271 599 304 q 471 239 516 239 q 384 272 425 239 q 319 364 342 305 q 305 412 311 388 q 297 384 302 397 q 247 307 279 334 q 180 280 215 280 q 112 308 144 280 q 62 385 79 336 q 45 486 45 434 q 62 587 45 538 q 112 665 79 637 q 180 692 144 692 q 247 665 215 692 q 297 589 279 638 q 305 561 302 575 z "},"":{"ha":451,"x_min":-49,"x_max":492,"o":"m -8 -191 q -49 -171 -49 -191 l -49 -63 l -24 -63 q -1 -107 -24 -92 q 42 -121 22 -121 l 43 -121 q 121 -12 98 -121 q 148 203 142 98 l 195 701 l 201 743 q 292 1034 219 904 q 451 1164 366 1164 q 492 1144 492 1164 l 492 1036 l 467 1036 q 444 1080 467 1065 q 401 1095 420 1095 q 322 989 353 1095 q 289 743 292 884 l 239 222 q 151 -62 226 66 q -8 -191 76 -191 z "},"":{"ha":688,"x_min":64,"x_max":626,"o":"m 626 714 l 626 608 q 543 542 583 559 q 465 525 503 525 q 344 558 424 525 q 224 591 264 591 q 152 572 190 591 q 64 496 113 553 l 64 602 q 147 669 107 651 q 224 686 187 686 q 348 653 268 686 q 465 619 427 619 q 538 638 500 619 q 626 714 576 657 m 626 478 l 626 372 q 543 306 583 323 q 465 289 503 289 q 344 322 424 289 q 224 355 264 355 q 152 336 190 355 q 64 260 113 317 l 64 366 q 147 433 107 415 q 224 450 187 450 q 348 417 268 450 q 465 383 427 383 q 538 402 500 383 q 626 478 576 421 z "},"":{"ha":688,"x_min":59,"x_max":629,"o":"m 629 728 l 205 485 l 629 244 l 629 131 l 59 457 l 59 513 l 629 842 l 629 728 m 59 1 l 59 96 l 628 96 l 629 95 l 629 1 l 59 1 z "},"":{"ha":688,"x_min":59,"x_max":629,"o":"m 59 842 l 629 513 l 629 457 l 59 131 l 59 244 l 483 485 l 59 728 l 59 842 m 59 1 l 59 96 l 628 96 l 629 96 l 629 1 l 59 1 z "},"":{"ha":728,"x_min":0,"x_max":0,"o":""},"":{"ha":733,"x_min":0,"x_max":0,"o":""}}}
